<?xml version="1.0" encoding="UTF-8" standalone="no"?>
<svg
   xmlns:dc="http://purl.org/dc/elements/1.1/"
   xmlns:cc="http://creativecommons.org/ns#"
   xmlns:rdf="http://www.w3.org/1999/02/22-rdf-syntax-ns#"
   xmlns:svg="http://www.w3.org/2000/svg"
   xmlns="http://www.w3.org/2000/svg"
   xmlns:sodipodi="http://sodipodi.sourceforge.net/DTD/sodipodi-0.dtd"
   xmlns:inkscape="http://www.inkscape.org/namespaces/inkscape"
   width="347.664"
   height="60"
   viewBox="251.092 496.181 347.664 60"
   enable-background="new 251.092 496.181 347.664 60"
   id="svg2"
   version="1.1"
   inkscape:version="0.48.5 r10040"
   sodipodi:docname="gdg-cherkasy.svg">
  <metadata
     id="metadata38">
    <rdf:RDF>
      <cc:Work
         rdf:about="">
        <dc:format>image/svg+xml</dc:format>
        <dc:type
           rdf:resource="http://purl.org/dc/dcmitype/StillImage" />
        <dc:title></dc:title>
      </cc:Work>
    </rdf:RDF>
  </metadata>
  <defs
     id="defs36" />
  <sodipodi:namedview
     pagecolor="#ffffff"
     bordercolor="#666666"
     borderopacity="1"
     objecttolerance="10"
     gridtolerance="10"
     guidetolerance="10"
     inkscape:pageopacity="0"
     inkscape:pageshadow="2"
     inkscape:window-width="1125"
     inkscape:window-height="742"
     id="namedview34"
     showgrid="false"
     inkscape:zoom="0.92042892"
     inkscape:cx="68.44635"
     inkscape:cy="-13.458"
     inkscape:window-x="0"
     inkscape:window-y="0"
     inkscape:window-maximized="0"
     inkscape:current-layer="svg2" />
  <g
     transform="translate(-985.904 -3367.887)"
     id="g4">
    <g
       fill="none"
       id="g6">
      <path
         d="M1249.415 3902.277l-12.117 19.772c-.681 1.11-.172 2.019 1.131 2.019h14.209c1.302 0 2.929-.906 3.615-2.013l6.416-10.365-13.254-9.413zM1267.028 3883.49l-10.774-17.406c-.686-1.107-2.312-2.014-3.615-2.014h-14.21c-1.303 0-1.811.909-1.13 2.019l13.796 22.511 7.755-10.919 8.178 5.809z"
         id="path8" />
    </g>
    <linearGradient
       id="a"
       gradientUnits="userSpaceOnUse"
       x1="3797.808"
       y1="3464.018"
       x2="3813.295"
       y2="3473.696"
       gradientTransform="translate(-2553.789 443.162)">
      <stop
         offset=".54"
         stop-color="#0A985C"
         id="stop11" />
      <stop
         offset=".54"
         stop-color="#F6C25B"
         id="stop13" />
    </linearGradient>
    <path
       fill="url(#a)"
       d="M1261.928 3907.385c-1.179-1.983-4.039-7.077-6.177-10.872l-2.412-4.248c.555 1.118.515 2.779-.122 3.819l-15.911 25.963c-.68 1.109-.172 2.02 1.132 2.02h14.207c1.303 0 2.93-.907 3.615-2.014l6.427-10.378c-.137.188.759-1.74-.759-4.29z"
       id="path15" />
    <path
       d="M1249.422 3902.275l-12.116 19.773c-.68 1.109-.171 2.02 1.132 2.02h14.208c1.303 0 2.929-.907 3.615-2.014l6.419-10.366-13.258-9.413zM1267.036 3883.487l-10.776-17.406c-.683-1.108-2.311-2.013-3.613-2.013h-14.209c-1.304 0-1.812.909-1.132 2.02l13.797 22.513 7.757-10.921 8.176 5.807z"
       fill="none"
       id="path17" />
    <path
       opacity=".09"
       fill="#010101"
       enable-background="new"
       d="M1272.339 3896.083c.688-1.108.688-2.922.002-4.03l-5.304-8.567-8.177-5.808-7.757 10.921 2.114 3.448c.681 1.11.681 2.928 0 4.038l-3.795 6.19 13.257 9.413 9.66-15.605z"
       id="path19" />
    <linearGradient
       id="b"
       gradientUnits="userSpaceOnUse"
       x1="3802.276"
       y1="3445.828"
       x2="3818.159"
       y2="3435.902"
       gradientTransform="translate(-2553.789 443.162)">
      <stop
         offset=".57"
         stop-color="#5586C5"
         id="stop22" />
      <stop
         offset=".57"
         stop-color="#D9423E"
         id="stop24" />
    </linearGradient>
    <path
       fill="url(#b)"
       d="M1272.336 3892.058l-16.076-25.973c-.685-1.108-2.313-2.014-3.615-2.014h-14.212c-1.302 0-1.81.908-1.13 2.02l15.911 25.961 2.536 4.462c2.138 3.794 4.998 8.888 6.177 10.872 1.775 2.985.247 5.115.935 4.006l9.474-15.304c.686-1.109.686-2.92 0-4.03zm-19.103.024l.057.094.004.007-.061-.101zm1.134 1.979l.168.296-.168-.296zm-.014-.036l.271.479-.271-.479z"
       id="path26" />
    <path
       fill="#4E4E4E"
       d="M1306.167 3890.121h14.065v17.564c-3.819 1.308-8.017 1.961-12.594 1.961-5.023 0-8.905-1.456-11.646-4.368s-4.112-7.066-4.112-12.46c0-5.261 1.5-9.354 4.502-12.282 3.001-2.927 7.207-4.391 12.616-4.391 2.051 0 3.986.193 5.807.58s3.407.877 4.759 1.471l-2.786 6.91c-2.348-1.159-4.926-1.739-7.734-1.739-2.571 0-4.559.836-5.963 2.508-1.404 1.671-2.106 4.061-2.106 7.166 0 3.047.635 5.368 1.906 6.966s3.102 2.396 5.494 2.396c1.308 0 2.511-.126 3.611-.379v-5.104h-5.817v-6.799h-.002zm45.676 2.096c0 5.439-1.498 9.629-4.492 12.572s-7.203 4.413-12.627 4.413h-10.543v-32.588h11.278c5.23 0 9.27 1.337 12.115 4.012s4.269 6.538 4.269 11.591zm-9.14.312c0-2.987-.59-5.201-1.771-6.642s-2.976-2.162-5.383-2.162h-2.563v18.255h1.961c2.675 0 4.637-.776 5.885-2.329s1.871-3.927 1.871-7.122zm25.371-2.408h14.064v17.564c-3.819 1.308-8.018 1.961-12.594 1.961-5.022 0-8.904-1.456-11.646-4.368-2.741-2.912-4.112-7.066-4.112-12.46 0-5.261 1.501-9.354 4.503-12.282 3.001-2.927 7.207-4.391 12.615-4.391 2.051 0 3.986.193 5.807.58s3.406.877 4.759 1.471l-2.786 6.91c-2.348-1.159-4.926-1.739-7.734-1.739-2.571 0-4.559.836-5.963 2.508-1.403 1.671-2.105 4.061-2.105 7.166 0 3.047.635 5.368 1.905 6.966s3.102 2.396 5.494 2.396c1.308 0 2.511-.126 3.611-.379v-5.104h-5.817l-.001-6.799z"
       enable-background="new"
       id="path28" />
  </g>
  <text
     xml:space="preserve"
     style="font-size:40px;font-style:normal;font-weight:normal;line-height:125%;letter-spacing:0px;word-spacing:0px;fill:#000000;fill-opacity:1;stroke:none;font-family:Sans"
     x="268.35315"
     y="26.320049"
     id="text3015"
     sodipodi:linespacing="125%"
     transform="translate(251.092,496.181)"><tspan
       sodipodi:role="line"
       id="tspan3017"
       x="268.35315"
       y="26.320049" /></text>
  <text
     xml:space="preserve"
     style="font-size:40px;font-style:normal;font-weight:normal;line-height:125%;letter-spacing:0px;word-spacing:0px;fill:#4e4e4e;fill-opacity:1;stroke:none;font-family:Sans"
     x="418.4053"
     y="540.05719"
     id="text3019"
     sodipodi:linespacing="125%"><tspan
       sodipodi:role="line"
       id="tspan3021"
       x="418.4053"
       y="540.05719"
       style="font-size:48px;font-style:normal;font-variant:normal;font-weight:normal;font-stretch:normal;text-align:start;line-height:125%;writing-mode:lr-tb;text-anchor:start;fill:#4e4e4e;fill-opacity:1;font-family:Sans;-inkscape-font-specification:Sans">Kyoto</tspan></text>
</svg>
