<?xml version="1.0" encoding="UTF-8" standalone="no"?>
<!-- Generator: Adobe Illustrator 17.0.1, SVG Export Plug-In . SVG Version: 6.00 Build 0)  -->

<svg
   xmlns:dc="http://purl.org/dc/elements/1.1/"
   xmlns:cc="http://creativecommons.org/ns#"
   xmlns:rdf="http://www.w3.org/1999/02/22-rdf-syntax-ns#"
   xmlns:svg="http://www.w3.org/2000/svg"
   xmlns="http://www.w3.org/2000/svg"
   xmlns:xlink="http://www.w3.org/1999/xlink"
   xmlns:sodipodi="http://sodipodi.sourceforge.net/DTD/sodipodi-0.dtd"
   xmlns:inkscape="http://www.inkscape.org/namespaces/inkscape"
   version="1.1"
   id="Layer_1"
   x="0px"
   y="0px"
   width="185px"
   height="188px"
   viewBox="0 0 185 188"
   enable-background="new 0 0 185 188"
   xml:space="preserve"
   inkscape:version="0.48.5 r10040"
   sodipodi:docname="logos.svg"><metadata
     id="metadata235"><rdf:RDF><cc:Work
         rdf:about=""><dc:format>image/svg+xml</dc:format><dc:type
           rdf:resource="http://purl.org/dc/dcmitype/StillImage" /><dc:title></dc:title></cc:Work></rdf:RDF></metadata><defs
     id="defs233"><inkscape:perspective
       sodipodi:type="inkscape:persp3d"
       inkscape:vp_x="0 : 94 : 1"
       inkscape:vp_y="0 : 1000 : 0"
       inkscape:vp_z="185 : 94 : 1"
       inkscape:persp3d-origin="92.5 : 62.666667 : 1"
       id="perspective3357" /><radialGradient
       gradientUnits="userSpaceOnUse"
       gradientTransform="matrix(0.498,0,0,0.498,172.2891,79.7388)"
       r="20.1137"
       cy="192.9653"
       cx="-310.265"
       id="SVGID_9_"><stop
         id="stop204"
         style="stop-color:#FFCF4F"
         offset="0" /><stop
         id="stop206"
         style="stop-color:#F4C236"
         offset="1" /></radialGradient><radialGradient
       gradientUnits="userSpaceOnUse"
       gradientTransform="matrix(0.498,0,0,0.498,172.2891,79.7388)"
       r="27.6582"
       cy="182.7508"
       cx="-322.3167"
       id="SVGID_10_"><stop
         id="stop211"
         style="stop-color:#08A960"
         offset="0" /><stop
         id="stop213"
         style="stop-color:#07914B"
         offset="1" /></radialGradient><radialGradient
       gradientUnits="userSpaceOnUse"
       gradientTransform="matrix(0.498,0,0,0.498,172.2891,79.7388)"
       r="40.54"
       cy="143.0691"
       cx="-312.8651"
       id="SVGID_11_"><stop
         id="stop218"
         style="stop-color:#567FC0"
         offset="0" /><stop
         id="stop220"
         style="stop-color:#557FC0"
         offset="1" /></radialGradient><radialGradient
       gradientUnits="userSpaceOnUse"
       gradientTransform="matrix(0.498,0,0,0.498,172.2891,79.7388)"
       r="33.0584"
       cy="133.1039"
       cx="-300.8011"
       id="SVGID_12_"><stop
         id="stop225"
         style="stop-color:#E14C40"
         offset="0" /><stop
         id="stop227"
         style="stop-color:#CD392D"
         offset="1" /></radialGradient><radialGradient
       inkscape:collect="always"
       xlink:href="#SVGID_12_"
       id="radialGradient3225"
       gradientUnits="userSpaceOnUse"
       gradientTransform="matrix(0.498,0,0,0.498,172.2891,79.7388)"
       cx="-300.8011"
       cy="133.1039"
       r="33.0584" /><radialGradient
       inkscape:collect="always"
       xlink:href="#SVGID_11_"
       id="radialGradient3228"
       gradientUnits="userSpaceOnUse"
       gradientTransform="matrix(0.498,0,0,0.498,172.2891,79.7388)"
       cx="-312.8651"
       cy="143.0691"
       r="40.54" /><radialGradient
       inkscape:collect="always"
       xlink:href="#SVGID_10_"
       id="radialGradient3231"
       gradientUnits="userSpaceOnUse"
       gradientTransform="matrix(0.498,0,0,0.498,172.2891,79.7388)"
       cx="-322.3167"
       cy="182.7508"
       r="27.6582" /><radialGradient
       inkscape:collect="always"
       xlink:href="#SVGID_9_"
       id="radialGradient3234"
       gradientUnits="userSpaceOnUse"
       gradientTransform="matrix(0.498,0,0,0.498,172.2891,79.7388)"
       cx="-310.265"
       cy="192.9653"
       r="20.1137" /><radialGradient
       gradientUnits="userSpaceOnUse"
       gradientTransform="matrix(0.498,0,0,0.498,172.2891,79.7388)"
       r="20.1137"
       cy="66.4552"
       cx="-310.583"
       id="SVGID_5_"><stop
         id="stop128"
         style="stop-color:#CCCCCC"
         offset="0" /><stop
         id="stop130"
         style="stop-color:#C0C0C0"
         offset="1" /></radialGradient><radialGradient
       gradientUnits="userSpaceOnUse"
       gradientTransform="matrix(0.498,0,0,0.498,172.2891,79.7388)"
       r="27.6582"
       cy="56.2407"
       cx="-322.6347"
       id="SVGID_6_"><stop
         id="stop135"
         style="stop-color:#A0A0A0"
         offset="0" /><stop
         id="stop137"
         style="stop-color:#7B7B7B"
         offset="1" /></radialGradient><radialGradient
       gradientUnits="userSpaceOnUse"
       gradientTransform="matrix(0.498,0,0,0.498,172.2891,79.7388)"
       r="40.54"
       cy="16.559"
       cx="-313.1831"
       id="SVGID_7_"><stop
         id="stop142"
         style="stop-color:#848484"
         offset="0" /><stop
         id="stop144"
         style="stop-color:#838383"
         offset="1" /></radialGradient><radialGradient
       gradientUnits="userSpaceOnUse"
       gradientTransform="matrix(0.498,0,0,0.498,172.2891,79.7388)"
       r="33.0584"
       cy="6.5938"
       cx="-301.1191"
       id="SVGID_8_"><stop
         id="stop149"
         style="stop-color:#626262"
         offset="0" /><stop
         id="stop151"
         style="stop-color:#474747"
         offset="1" /></radialGradient><radialGradient
       inkscape:collect="always"
       xlink:href="#SVGID_8_"
       id="radialGradient3272"
       gradientUnits="userSpaceOnUse"
       gradientTransform="matrix(0.498,0,0,0.498,172.2891,79.7388)"
       cx="-301.1191"
       cy="6.5938"
       r="33.0584" /><radialGradient
       inkscape:collect="always"
       xlink:href="#SVGID_7_"
       id="radialGradient3275"
       gradientUnits="userSpaceOnUse"
       gradientTransform="matrix(0.498,0,0,0.498,172.2891,79.7388)"
       cx="-313.1831"
       cy="16.559"
       r="40.54" /><radialGradient
       inkscape:collect="always"
       xlink:href="#SVGID_6_"
       id="radialGradient3278"
       gradientUnits="userSpaceOnUse"
       gradientTransform="matrix(0.498,0,0,0.498,172.2891,79.7388)"
       cx="-322.6347"
       cy="56.2407"
       r="27.6582" /><radialGradient
       inkscape:collect="always"
       xlink:href="#SVGID_5_"
       id="radialGradient3281"
       gradientUnits="userSpaceOnUse"
       gradientTransform="matrix(0.498,0,0,0.498,172.2891,79.7388)"
       cx="-310.583"
       cy="66.4552"
       r="20.1137" /><radialGradient
       gradientUnits="userSpaceOnUse"
       gradientTransform="matrix(0.498,0,0,0.498,172.2891,79.7388)"
       r="20.1137"
       cy="-60.055"
       cx="-310.583"
       id="SVGID_1_"><stop
         id="stop52"
         style="stop-color:#FFCF4F"
         offset="0" /><stop
         id="stop54"
         style="stop-color:#F4C236"
         offset="1" /></radialGradient><radialGradient
       gradientUnits="userSpaceOnUse"
       gradientTransform="matrix(0.498,0,0,0.498,172.2891,79.7388)"
       r="27.6582"
       cy="-70.2695"
       cx="-322.6347"
       id="SVGID_2_"><stop
         id="stop59"
         style="stop-color:#08A960"
         offset="0" /><stop
         id="stop61"
         style="stop-color:#07914B"
         offset="1" /></radialGradient><radialGradient
       gradientUnits="userSpaceOnUse"
       gradientTransform="matrix(0.498,0,0,0.498,172.2891,79.7388)"
       r="40.54"
       cy="-109.9511"
       cx="-313.1831"
       id="SVGID_3_"><stop
         id="stop66"
         style="stop-color:#567FC0"
         offset="0" /><stop
         id="stop68"
         style="stop-color:#557FC0"
         offset="1" /></radialGradient><radialGradient
       gradientUnits="userSpaceOnUse"
       gradientTransform="matrix(0.498,0,0,0.498,172.2891,79.7388)"
       r="33.0584"
       cy="-119.9164"
       cx="-301.1191"
       id="SVGID_4_"><stop
         id="stop73"
         style="stop-color:#E14C40"
         offset="0" /><stop
         id="stop75"
         style="stop-color:#CD392D"
         offset="1" /></radialGradient><radialGradient
       inkscape:collect="always"
       xlink:href="#SVGID_4_"
       id="radialGradient3319"
       gradientUnits="userSpaceOnUse"
       gradientTransform="matrix(0.498,0,0,0.498,172.2891,79.7388)"
       cx="-301.1191"
       cy="-119.9164"
       r="33.0584" /><radialGradient
       inkscape:collect="always"
       xlink:href="#SVGID_3_"
       id="radialGradient3322"
       gradientUnits="userSpaceOnUse"
       gradientTransform="matrix(0.498,0,0,0.498,172.2891,79.7388)"
       cx="-313.1831"
       cy="-109.9511"
       r="40.54" /><radialGradient
       inkscape:collect="always"
       xlink:href="#SVGID_2_"
       id="radialGradient3325"
       gradientUnits="userSpaceOnUse"
       gradientTransform="matrix(0.498,0,0,0.498,172.2891,79.7388)"
       cx="-322.6347"
       cy="-70.2695"
       r="27.6582" /><radialGradient
       inkscape:collect="always"
       xlink:href="#SVGID_1_"
       id="radialGradient3328"
       gradientUnits="userSpaceOnUse"
       gradientTransform="matrix(0.498,0,0,0.498,172.2891,79.7388)"
       cx="-310.583"
       cy="-60.055"
       r="20.1137" /><radialGradient
       inkscape:collect="always"
       xlink:href="#SVGID_4_"
       id="radialGradient3580"
       gradientUnits="userSpaceOnUse"
       gradientTransform="matrix(0.498,0,0,0.498,172.2891,79.7388)"
       cx="-301.1191"
       cy="-119.9164"
       r="33.0584" /><radialGradient
       inkscape:collect="always"
       xlink:href="#SVGID_3_"
       id="radialGradient3583"
       gradientUnits="userSpaceOnUse"
       gradientTransform="matrix(0.498,0,0,0.498,172.2891,79.7388)"
       cx="-313.1831"
       cy="-109.9511"
       r="40.54" /><radialGradient
       inkscape:collect="always"
       xlink:href="#SVGID_2_"
       id="radialGradient3586"
       gradientUnits="userSpaceOnUse"
       gradientTransform="matrix(0.498,0,0,0.498,172.2891,79.7388)"
       cx="-322.6347"
       cy="-70.2695"
       r="27.6582" /><radialGradient
       inkscape:collect="always"
       xlink:href="#SVGID_1_"
       id="radialGradient3589"
       gradientUnits="userSpaceOnUse"
       gradientTransform="matrix(0.498,0,0,0.498,172.2891,79.7388)"
       cx="-310.583"
       cy="-60.055"
       r="20.1137" /><radialGradient
       inkscape:collect="always"
       xlink:href="#SVGID_8_"
       id="radialGradient3640"
       gradientUnits="userSpaceOnUse"
       gradientTransform="matrix(0.498,0,0,0.498,172.2891,79.7388)"
       cx="-301.1191"
       cy="6.5938"
       r="33.0584" /><radialGradient
       inkscape:collect="always"
       xlink:href="#SVGID_7_"
       id="radialGradient3643"
       gradientUnits="userSpaceOnUse"
       gradientTransform="matrix(0.498,0,0,0.498,172.2891,79.7388)"
       cx="-313.1831"
       cy="16.559"
       r="40.54" /><radialGradient
       inkscape:collect="always"
       xlink:href="#SVGID_6_"
       id="radialGradient3646"
       gradientUnits="userSpaceOnUse"
       gradientTransform="matrix(0.498,0,0,0.498,172.2891,79.7388)"
       cx="-322.6347"
       cy="56.2407"
       r="27.6582" /><radialGradient
       inkscape:collect="always"
       xlink:href="#SVGID_5_"
       id="radialGradient3649"
       gradientUnits="userSpaceOnUse"
       gradientTransform="matrix(0.498,0,0,0.498,172.2891,79.7388)"
       cx="-310.583"
       cy="66.4552"
       r="20.1137" /><radialGradient
       inkscape:collect="always"
       xlink:href="#SVGID_12_"
       id="radialGradient3672"
       gradientUnits="userSpaceOnUse"
       gradientTransform="matrix(0.498,0,0,0.498,172.2891,79.7388)"
       cx="-300.8011"
       cy="133.1039"
       r="33.0584" /><radialGradient
       inkscape:collect="always"
       xlink:href="#SVGID_11_"
       id="radialGradient3675"
       gradientUnits="userSpaceOnUse"
       gradientTransform="matrix(0.498,0,0,0.498,172.2891,79.7388)"
       cx="-312.8651"
       cy="143.0691"
       r="40.54" /><radialGradient
       inkscape:collect="always"
       xlink:href="#SVGID_10_"
       id="radialGradient3678"
       gradientUnits="userSpaceOnUse"
       gradientTransform="matrix(0.498,0,0,0.498,172.2891,79.7388)"
       cx="-322.3167"
       cy="182.7508"
       r="27.6582" /><radialGradient
       inkscape:collect="always"
       xlink:href="#SVGID_9_"
       id="radialGradient3681"
       gradientUnits="userSpaceOnUse"
       gradientTransform="matrix(0.498,0,0,0.498,172.2891,79.7388)"
       cx="-310.265"
       cy="192.9653"
       r="20.1137" /></defs><sodipodi:namedview
     pagecolor="#ffffff"
     bordercolor="#666666"
     borderopacity="1"
     objecttolerance="10"
     gridtolerance="10"
     guidetolerance="10"
     inkscape:pageopacity="0"
     inkscape:pageshadow="2"
     inkscape:window-width="1062"
     inkscape:window-height="707"
     id="namedview231"
     showgrid="false"
     inkscape:zoom="2.5106383"
     inkscape:cx="157.08849"
     inkscape:cy="94.82256"
     inkscape:window-x="0"
     inkscape:window-y="0"
     inkscape:window-maximized="0"
     inkscape:current-layer="Layer_1" /><g
     id="g3768"><g
       id="g5"><path
         d="m 115.912,17.967 c 0,2.676 -0.731,4.738 -2.193,6.186 -1.462,1.448 -3.518,2.171 -6.166,2.171 h -5.148 V 10.29 h 5.507 c 2.554,0 4.526,0.658 5.916,1.974 1.389,1.316 2.084,3.217 2.084,5.703 z m -4.462,0.154 c 0,-1.469 -0.289,-2.559 -0.866,-3.268 -0.577,-0.709 -1.453,-1.064 -2.628,-1.064 h -1.251 v 8.982 h 0.958 c 1.306,0 2.264,-0.382 2.874,-1.146 0.61,-0.764 0.913,-1.932 0.913,-3.504 z"
         id="path7"
         inkscape:connector-curvature="0"
         style="fill:#4e4e4e" /><path
         d="m 123.129,26.544 c -2.053,0 -3.646,-0.55 -4.783,-1.65 -1.136,-1.101 -1.704,-2.667 -1.704,-4.7 0,-2.099 0.526,-3.709 1.578,-4.832 1.053,-1.122 2.555,-1.684 4.506,-1.684 1.857,0 3.293,0.488 4.305,1.464 1.012,0.976 1.52,2.382 1.52,4.217 v 1.908 h -7.609 c 0.029,0.695 0.281,1.239 0.758,1.634 0.475,0.395 1.121,0.592 1.941,0.592 0.748,0 1.436,-0.071 2.063,-0.214 0.629,-0.143 1.309,-0.386 2.041,-0.729 v 3.082 c -0.668,0.344 -1.357,0.581 -2.068,0.713 -0.712,0.133 -1.56,0.199 -2.548,0.199 z m -0.25,-9.948 c -0.5,0 -0.92,0.159 -1.256,0.477 -0.338,0.318 -0.537,0.817 -0.594,1.497 h 3.656 c -0.014,-0.599 -0.184,-1.078 -0.506,-1.437 -0.322,-0.359 -0.755,-0.537 -1.3,-0.537 z"
         id="path9"
         inkscape:connector-curvature="0"
         style="fill:#4e4e4e" /><path
         d="m 132.851,26.325 -4.702,-12.426 h 4.44 l 2.09,7.348 c 0.008,0.037 0.022,0.099 0.044,0.187 0.022,0.088 0.043,0.192 0.065,0.313 0.021,0.121 0.041,0.249 0.06,0.384 0.018,0.136 0.027,0.262 0.027,0.378 h 0.076 c 0,-0.38 0.065,-0.793 0.195,-1.239 l 2.188,-7.37 h 4.43 l -4.702,12.426 h -4.211 z"
         id="path11"
         inkscape:connector-curvature="0"
         style="fill:#4e4e4e" /><path
         d="m 146.381,26.325 h -4.234 V 10.29 h 9.404 v 3.477 h -5.17 v 3.06 h 4.767 v 3.477 h -4.767 v 6.021 z"
         id="path13"
         inkscape:connector-curvature="0"
         style="fill:#4e4e4e" /><path
         d="m 158.528,26.544 c -2.054,0 -3.647,-0.55 -4.783,-1.65 -1.136,-1.1 -1.703,-2.667 -1.703,-4.7 0,-2.099 0.525,-3.709 1.578,-4.832 1.052,-1.122 2.554,-1.684 4.506,-1.684 1.857,0 3.292,0.488 4.305,1.464 1.012,0.976 1.519,2.382 1.519,4.217 v 1.908 h -7.608 c 0.029,0.695 0.281,1.239 0.757,1.634 0.475,0.395 1.122,0.592 1.942,0.592 0.747,0 1.435,-0.071 2.063,-0.214 0.628,-0.143 1.308,-0.386 2.041,-0.729 v 3.082 c -0.668,0.344 -1.357,0.581 -2.068,0.713 -0.713,0.133 -1.561,0.199 -2.549,0.199 z m -0.25,-9.948 c -0.501,0 -0.92,0.159 -1.257,0.477 -0.338,0.318 -0.536,0.817 -0.594,1.497 h 3.657 c -0.015,-0.599 -0.184,-1.078 -0.506,-1.437 -0.322,-0.358 -0.756,-0.537 -1.3,-0.537 z"
         id="path15"
         inkscape:connector-curvature="0"
         style="fill:#4e4e4e" /><path
         d="m 174.541,22.508 c 0,1.331 -0.45,2.336 -1.35,3.016 -0.9,0.68 -2.191,1.02 -3.875,1.02 -0.914,0 -1.709,-0.049 -2.384,-0.148 -0.675,-0.099 -1.364,-0.28 -2.067,-0.543 V 22.42 c 0.66,0.292 1.384,0.534 2.171,0.724 0.787,0.19 1.489,0.285 2.106,0.285 0.921,0 1.382,-0.212 1.382,-0.636 0,-0.219 -0.129,-0.415 -0.386,-0.586 -0.258,-0.172 -1.007,-0.506 -2.248,-1.004 -1.132,-0.468 -1.923,-1 -2.373,-1.596 -0.449,-0.596 -0.675,-1.351 -0.675,-2.265 0,-1.155 0.442,-2.055 1.328,-2.698 0.885,-0.644 2.137,-0.965 3.755,-0.965 0.813,0 1.576,0.09 2.291,0.269 0.715,0.179 1.457,0.44 2.227,0.784 l -1.154,2.764 c -0.565,-0.256 -1.164,-0.473 -1.796,-0.652 -0.631,-0.179 -1.146,-0.269 -1.546,-0.269 -0.696,0 -1.044,0.172 -1.044,0.516 0,0.212 0.121,0.393 0.364,0.543 0.243,0.15 0.945,0.455 2.106,0.916 0.863,0.358 1.507,0.709 1.932,1.053 0.425,0.344 0.736,0.748 0.936,1.212 0.2,0.463 0.3,1.028 0.3,1.693 z"
         id="path17"
         inkscape:connector-curvature="0"
         style="fill:#4e4e4e" /><path
         d="m 181.605,23.155 c 0.573,0 1.259,-0.143 2.058,-0.428 v 3.126 c -0.573,0.249 -1.119,0.426 -1.639,0.532 -0.519,0.105 -1.126,0.159 -1.822,0.159 -1.43,0 -2.46,-0.353 -3.092,-1.058 -0.631,-0.706 -0.946,-1.79 -0.946,-3.252 v -5.122 h -1.491 v -1.744 l 1.894,-1.349 1.1,-2.61 h 2.786 v 2.49 h 3.025 v 3.213 h -3.025 v 4.837 c -0.001,0.804 0.384,1.206 1.152,1.206 z"
         id="path19"
         inkscape:connector-curvature="0"
         style="fill:#4e4e4e" /></g><g
       id="g43"><path
         d="m 55.571,17.313 h 6.922 v 8.644 c -1.879,0.644 -3.945,0.965 -6.198,0.965 -2.472,0 -4.382,-0.716 -5.731,-2.15 -1.349,-1.433 -2.024,-3.477 -2.024,-6.132 0,-2.589 0.739,-4.603 2.216,-6.044 1.477,-1.44 3.547,-2.161 6.208,-2.161 1.009,0 1.962,0.095 2.858,0.285 0.896,0.19 1.676,0.432 2.342,0.724 l -1.371,3.4 c -1.156,-0.57 -2.424,-0.855 -3.807,-0.855 -1.265,0 -2.243,0.412 -2.934,1.234 -0.691,0.823 -1.037,1.999 -1.037,3.527 0,1.499 0.313,2.642 0.938,3.428 0.625,0.786 1.526,1.179 2.704,1.179 0.644,0 1.236,-0.062 1.777,-0.187 v -2.512 h -2.863 v -3.345 z"
         id="path45"
         inkscape:connector-curvature="0"
         style="fill:#4e4e4e" /><path
         d="m 78.026,18.344 c 0,2.676 -0.737,4.739 -2.21,6.187 -1.473,1.448 -3.545,2.172 -6.214,2.172 H 64.414 V 10.666 h 5.551 c 2.574,0 4.561,0.658 5.961,1.975 1.4,1.317 2.1,3.217 2.1,5.703 z m -4.497,0.154 c 0,-1.47 -0.291,-2.56 -0.872,-3.269 -0.582,-0.709 -1.464,-1.064 -2.649,-1.064 h -1.262 v 8.983 h 0.965 c 1.316,0 2.282,-0.382 2.896,-1.146 0.614,-0.764 0.922,-1.932 0.922,-3.504 z"
         id="path47"
         inkscape:connector-curvature="0"
         style="fill:#4e4e4e" /><path
         d="m 85.991,17.313 h 6.922 v 8.644 c -1.879,0.644 -3.945,0.965 -6.198,0.965 -2.472,0 -4.382,-0.716 -5.731,-2.15 -1.349,-1.433 -2.024,-3.477 -2.024,-6.132 0,-2.589 0.739,-4.603 2.216,-6.044 1.477,-1.44 3.547,-2.161 6.208,-2.161 1.009,0 1.962,0.095 2.858,0.285 0.896,0.19 1.676,0.432 2.342,0.724 l -1.371,3.4 c -1.156,-0.57 -2.424,-0.855 -3.807,-0.855 -1.265,0 -2.243,0.412 -2.934,1.234 -0.691,0.823 -1.037,1.999 -1.037,3.527 0,1.499 0.313,2.642 0.938,3.428 0.625,0.786 1.526,1.179 2.704,1.179 0.644,0 1.236,-0.062 1.777,-0.187 v -2.512 h -2.863 v -3.345 z"
         id="path49"
         inkscape:connector-curvature="0"
         style="fill:#4e4e4e" /></g><path
       d="m 8.91,61 h 6.791 c 1.607,0 3.604,-1.128 4.432,-2.511 l 5.72,-9.519 c 0.677,-1.396 0.653,-3.426 -0.119,-4.713 L 22.356,38.665 8.91,61 z"
       id="path56"
       style="fill:url(#radialGradient3589)"
       inkscape:connector-curvature="0" /><path
       d="M 16.209,33.514 1.108,58.763 C 0.524,60.011 1.131,61 2.629,61 H 8.91 L 22.356,38.665 16.21,28.492 c 0.829,1.378 0.829,3.638 -0.001,5.022"
       id="path63"
       style="fill:url(#radialGradient3586)"
       inkscape:connector-curvature="0" /><path
       d="M 2.629,1 C 1.015,1 0.375,2.133 1.205,3.511 l 24.529,40.745 c 0.772,1.288 0.795,3.317 0.119,4.713 L 31.816,39.044 8.914,1 H 2.629 z"
       id="path70"
       style="fill:url(#radialGradient3583)"
       inkscape:connector-curvature="0" /><path
       d="m 8.914,1 22.903,38.045 3.321,-5.53 c 0.83,-1.385 0.83,-3.645 0,-5.023 L 20.133,3.511 C 19.305,2.133 17.308,1 15.701,1 H 8.914 z"
       id="path77"
       style="fill:url(#radialGradient3580)"
       inkscape:connector-curvature="0" /><g
       id="g3732"><path
         d="m 121.62098,48.682611 h -10.251 v -1.841 l 3.9,-3.92 c 1.151,-1.179 1.915,-2.016 2.291,-2.509 0.376,-0.493 0.65,-0.957 0.822,-1.391 0.172,-0.434 0.259,-0.9 0.259,-1.396 0,-0.683 -0.205,-1.221 -0.616,-1.614 -0.41,-0.393 -0.978,-0.59 -1.702,-0.59 -0.579,0 -1.14,0.107 -1.681,0.321 -0.542,0.214 -1.167,0.6 -1.877,1.159 l -1.313,-1.605 c 0.841,-0.71 1.659,-1.214 2.452,-1.51 0.793,-0.296 1.638,-0.445 2.535,-0.445 1.407,0 2.534,0.367 3.382,1.102 0.848,0.735 1.272,1.723 1.272,2.964 0,0.683 -0.123,1.331 -0.367,1.945 -0.245,0.614 -0.621,1.247 -1.127,1.898 -0.507,0.652 -1.35,1.533 -2.529,2.643 l -2.627,2.545 v 0.104 h 7.179 v 2.14 z"
         id="path23"
         inkscape:connector-curvature="0"
         style="fill:#4e4e4e" /><path
         d="m 132.44298,41.120611 c 0,2.628 -0.422,4.58 -1.267,5.855 -0.845,1.276 -2.136,1.914 -3.874,1.914 -1.683,0 -2.958,-0.659 -3.827,-1.976 -0.869,-1.317 -1.304,-3.248 -1.304,-5.793 0,-2.668 0.422,-4.636 1.268,-5.901 0.844,-1.265 2.132,-1.898 3.863,-1.898 1.689,0 2.969,0.662 3.838,1.986 0.868,1.323 1.303,3.261 1.303,5.813 z m -7.811,0 c 0,2.063 0.212,3.535 0.636,4.417 0.424,0.883 1.102,1.324 2.033,1.324 0.931,0 1.612,-0.448 2.043,-1.345 0.431,-0.896 0.646,-2.362 0.646,-4.396 0,-2.027 -0.215,-3.495 -0.646,-4.401 -0.431,-0.907 -1.112,-1.36 -2.043,-1.36 -0.931,0 -1.608,0.445 -2.033,1.334 -0.423,0.889 -0.636,2.365 -0.636,4.427 z"
         id="path25"
         inkscape:connector-curvature="0"
         style="fill:#4e4e4e" /><path
         d="m 140.15098,48.682611 h -2.431 v -9.765 c 0,-1.166 0.027,-2.089 0.083,-2.772 -0.159,0.166 -0.354,0.349 -0.584,0.548 -0.231,0.2 -1.005,0.834 -2.323,1.903 l -1.22,-1.541 4.448,-3.497 h 2.028 v 15.124 z"
         id="path27"
         inkscape:connector-curvature="0"
         style="fill:#4e4e4e" /><path
         d="m 154.62398,45.382611 h -2.038 v 3.3 h -2.369 v -3.3 h -6.91 v -1.873 l 6.91,-9.993 h 2.369 v 9.848 h 2.038 v 2.018 z m -4.407,-2.017 v -3.796 c 0,-1.352 0.035,-2.458 0.104,-3.321 h -0.083 c -0.193,0.455 -0.496,1.007 -0.91,1.655 l -3.755,5.462 h 4.644 z"
         id="path29"
         inkscape:connector-curvature="0"
         style="fill:#4e4e4e" /><g
         style="font-size:40px;font-style:normal;font-weight:normal;line-height:125%;letter-spacing:0px;word-spacing:0px;fill:#000000;fill-opacity:1;stroke:none;font-family:Sans"
         id="text3359"><path
           d="m 50.354099,32.953438 2.169922,0 0,6.77832 7.197266,-6.77832 2.792969,0 -7.959961,7.476562 8.529296,8.561524 -2.857421,0 -7.702149,-7.723633 0,7.723633 -2.169922,0 0,-16.038086"
           style="font-size:22px;font-variant:normal;font-stretch:normal;text-align:start;line-height:125%;letter-spacing:-0.87px;writing-mode:lr-tb;text-anchor:start;font-family:Sans;-inkscape-font-specification:Sans"
           id="path3700" /><path
           d="m 67.273162,50.108711 c -0.5586,1.432289 -1.102871,2.366859 -1.632813,2.803711 -0.529952,0.436845 -1.238936,0.655269 -2.126953,0.655274 l -1.579101,0 0,-1.654297 1.160156,0 c 0.544267,-3e-6 0.966793,-0.128909 1.267578,-0.386719 0.300777,-0.257815 0.633784,-0.866538 0.999024,-1.826172 l 0.354492,-0.902344 -4.866211,-11.83789 2.094726,0 3.759766,9.410156 3.759766,-9.410156 2.094726,0 -5.285156,13.148437"
           style="font-size:22px;font-variant:normal;font-stretch:normal;text-align:start;line-height:125%;letter-spacing:-0.87px;writing-mode:lr-tb;text-anchor:start;font-family:Sans;-inkscape-font-specification:Sans"
           id="path3702" /><path
           d="m 79.100428,38.346016 c -1.059902,1.1e-5 -1.897792,0.415375 -2.513672,1.246094 -0.615889,0.823576 -0.923832,1.955085 -0.923828,3.394531 -4e-6,1.439458 0.304358,2.574548 0.913086,3.405273 0.61588,0.82357 1.457351,1.235353 2.524414,1.235352 1.052726,1e-6 1.887035,-0.415363 2.502929,-1.246094 0.615876,-0.830726 0.923818,-1.962235 0.923828,-3.394531 -1e-5,-1.425123 -0.307952,-2.553051 -0.923828,-3.383789 -0.615894,-0.837881 -1.450203,-1.256825 -2.502929,-1.256836 m 0,-1.675781 c 1.718741,1.2e-5 3.068675,0.558605 4.049804,1.675781 0.981108,1.117197 1.471668,2.66407 1.47168,4.640625 -1.2e-5,1.969405 -0.490572,3.516278 -1.47168,4.640625 -0.981129,1.117188 -2.331063,1.675781 -4.049804,1.675781 -1.725917,0 -3.079431,-0.558593 -4.060547,-1.675781 -0.97396,-1.124347 -1.460939,-2.67122 -1.460938,-4.640625 -10e-7,-1.976555 0.486978,-3.523428 1.460938,-4.640625 0.981116,-1.117176 2.33463,-1.675769 4.060547,-1.675781"
           style="font-size:22px;font-variant:normal;font-stretch:normal;text-align:start;line-height:125%;letter-spacing:-0.87px;writing-mode:lr-tb;text-anchor:start;font-family:Sans;-inkscape-font-specification:Sans"
           id="path3704" /><path
           d="m 88.972614,33.544258 0,3.416016 4.071289,0 0,1.536133 -4.071289,0 0,6.53125 c -4e-6,0.981122 0.132483,1.61133 0.397461,1.890625 0.272131,0.279298 0.819982,0.418947 1.643555,0.418945 l 2.030273,0 0,1.654297 -2.030273,0 c -1.525395,0 -2.578129,-0.282878 -3.158203,-0.848633 -0.580081,-0.572915 -0.870119,-1.611326 -0.870117,-3.115234 l 0,-6.53125 -1.450196,0 0,-1.536133 1.450196,0 0,-3.416016 1.987304,0"
           style="font-size:22px;font-variant:normal;font-stretch:normal;text-align:start;line-height:125%;letter-spacing:-0.87px;writing-mode:lr-tb;text-anchor:start;font-family:Sans;-inkscape-font-specification:Sans"
           id="path3706" /><path
           d="m 99.446365,38.346016 c -1.059901,1.1e-5 -1.897791,0.415375 -2.513672,1.246094 -0.615889,0.823576 -0.923831,1.955085 -0.923828,3.394531 -3e-6,1.439458 0.304359,2.574548 0.913086,3.405273 0.615881,0.82357 1.457351,1.235353 2.524414,1.235352 1.052725,1e-6 1.887035,-0.415363 2.502935,-1.246094 0.61587,-0.830726 0.92381,-1.962235 0.92382,-3.394531 -1e-5,-1.425123 -0.30795,-2.553051 -0.92382,-3.383789 -0.6159,-0.837881 -1.45021,-1.256825 -2.502935,-1.256836 m 0,-1.675781 c 1.718745,1.2e-5 3.068675,0.558605 4.049805,1.675781 0.98111,1.117197 1.47167,2.66407 1.47168,4.640625 -1e-5,1.969405 -0.49057,3.516278 -1.47168,4.640625 -0.98113,1.117188 -2.33106,1.675781 -4.049805,1.675781 -1.725916,0 -3.07943,-0.558593 -4.060547,-1.675781 -0.97396,-1.124347 -1.460938,-2.67122 -1.460937,-4.640625 -10e-7,-1.976555 0.486977,-3.523428 1.460937,-4.640625 0.981117,-1.117176 2.334631,-1.675769 4.060547,-1.675781"
           style="font-size:22px;font-variant:normal;font-stretch:normal;text-align:start;line-height:125%;letter-spacing:-0.87px;writing-mode:lr-tb;text-anchor:start;font-family:Sans;-inkscape-font-specification:Sans"
           id="path3708" /></g></g></g><g
     id="g3797"><g
       id="g81"><path
         d="m 115.912,80.967 c 0,2.677 -0.731,4.738 -2.193,6.187 -1.462,1.447 -3.518,2.171 -6.166,2.171 h -5.148 V 73.29 h 5.507 c 2.554,0 4.526,0.657 5.916,1.974 1.39,1.317 2.084,3.217 2.084,5.703 z m -4.462,0.153 c 0,-1.469 -0.289,-2.559 -0.866,-3.268 -0.577,-0.71 -1.453,-1.064 -2.628,-1.064 h -1.251 v 8.982 h 0.958 c 1.306,0 2.264,-0.382 2.874,-1.146 0.608,-0.764 0.913,-1.932 0.913,-3.504 z"
         id="path83"
         inkscape:connector-curvature="0"
         style="fill:#4e4e4e" /><path
         d="m 123.129,89.544 c -2.053,0 -3.646,-0.55 -4.783,-1.65 -1.136,-1.101 -1.704,-2.667 -1.704,-4.7 0,-2.099 0.526,-3.709 1.578,-4.831 1.053,-1.122 2.555,-1.684 4.506,-1.684 1.857,0 3.293,0.488 4.305,1.464 1.012,0.977 1.52,2.382 1.52,4.218 v 1.908 h -7.609 c 0.029,0.694 0.281,1.239 0.758,1.634 0.475,0.396 1.121,0.593 1.941,0.593 0.748,0 1.436,-0.071 2.063,-0.214 0.629,-0.143 1.309,-0.386 2.041,-0.729 v 3.082 c -0.668,0.344 -1.357,0.581 -2.068,0.713 -0.712,0.13 -1.56,0.196 -2.548,0.196 z m -0.25,-9.948 c -0.5,0 -0.92,0.159 -1.256,0.478 -0.338,0.318 -0.537,0.817 -0.594,1.497 h 3.656 c -0.014,-0.6 -0.184,-1.078 -0.506,-1.437 -0.322,-0.359 -0.755,-0.538 -1.3,-0.538 z"
         id="path85"
         inkscape:connector-curvature="0"
         style="fill:#4e4e4e" /><path
         d="m 132.851,89.324 -4.702,-12.426 h 4.44 l 2.09,7.348 c 0.008,0.037 0.022,0.099 0.044,0.187 0.022,0.088 0.043,0.192 0.065,0.313 0.021,0.121 0.041,0.249 0.06,0.384 0.018,0.136 0.027,0.262 0.027,0.379 h 0.076 c 0,-0.38 0.065,-0.793 0.195,-1.239 l 2.188,-7.37 h 4.43 l -4.702,12.426 h -4.211 z"
         id="path87"
         inkscape:connector-curvature="0"
         style="fill:#4e4e4e" /><path
         d="m 146.381,89.324 h -4.234 V 73.29 h 9.404 v 3.477 h -5.17 v 3.06 h 4.767 v 3.477 h -4.767 v 6.02 z"
         id="path89"
         inkscape:connector-curvature="0"
         style="fill:#4e4e4e" /><path
         d="m 158.528,89.544 c -2.054,0 -3.647,-0.55 -4.783,-1.65 -1.136,-1.1 -1.703,-2.667 -1.703,-4.7 0,-2.099 0.525,-3.709 1.578,-4.831 1.052,-1.122 2.554,-1.684 4.506,-1.684 1.857,0 3.292,0.488 4.305,1.464 1.012,0.977 1.519,2.382 1.519,4.218 v 1.908 h -7.608 c 0.029,0.694 0.281,1.239 0.757,1.634 0.475,0.396 1.122,0.593 1.942,0.593 0.747,0 1.435,-0.071 2.063,-0.214 0.628,-0.143 1.308,-0.386 2.041,-0.729 v 3.082 c -0.668,0.344 -1.357,0.581 -2.068,0.713 -0.713,0.13 -1.561,0.196 -2.549,0.196 z m -0.25,-9.948 c -0.501,0 -0.92,0.159 -1.257,0.478 -0.338,0.318 -0.536,0.817 -0.594,1.497 h 3.657 c -0.015,-0.6 -0.184,-1.078 -0.506,-1.437 -0.322,-0.359 -0.756,-0.538 -1.3,-0.538 z"
         id="path91"
         inkscape:connector-curvature="0"
         style="fill:#4e4e4e" /><path
         d="m 174.541,85.508 c 0,1.331 -0.45,2.336 -1.35,3.016 -0.9,0.681 -2.191,1.021 -3.875,1.021 -0.914,0 -1.709,-0.05 -2.384,-0.148 -0.675,-0.098 -1.364,-0.279 -2.067,-0.543 V 85.42 c 0.66,0.293 1.384,0.534 2.171,0.724 0.787,0.19 1.489,0.285 2.106,0.285 0.921,0 1.382,-0.212 1.382,-0.636 0,-0.22 -0.129,-0.415 -0.386,-0.587 -0.258,-0.172 -1.007,-0.506 -2.248,-1.004 -1.132,-0.468 -1.923,-0.999 -2.373,-1.596 -0.449,-0.596 -0.675,-1.351 -0.675,-2.265 0,-1.155 0.442,-2.055 1.328,-2.698 0.885,-0.644 2.137,-0.965 3.755,-0.965 0.813,0 1.576,0.09 2.291,0.269 0.715,0.18 1.457,0.44 2.227,0.784 l -1.154,2.764 c -0.565,-0.256 -1.164,-0.473 -1.796,-0.652 -0.631,-0.179 -1.146,-0.269 -1.546,-0.269 -0.696,0 -1.044,0.172 -1.044,0.516 0,0.212 0.121,0.393 0.364,0.543 0.243,0.149 0.945,0.455 2.106,0.915 0.863,0.358 1.507,0.71 1.932,1.054 0.425,0.344 0.736,0.747 0.936,1.212 0.2,0.463 0.3,1.029 0.3,1.694 z"
         id="path93"
         inkscape:connector-curvature="0"
         style="fill:#4e4e4e" /><path
         d="m 181.605,86.154 c 0.573,0 1.259,-0.143 2.058,-0.428 v 3.126 c -0.573,0.249 -1.119,0.427 -1.639,0.532 -0.519,0.105 -1.126,0.159 -1.822,0.159 -1.43,0 -2.46,-0.353 -3.092,-1.059 -0.631,-0.705 -0.946,-1.789 -0.946,-3.252 V 80.11 h -1.491 v -1.743 l 1.894,-1.35 1.1,-2.61 h 2.786 v 2.49 h 3.025 v 3.213 h -3.025 v 4.837 c -0.001,0.806 0.384,1.207 1.152,1.207 z"
         id="path95"
         inkscape:connector-curvature="0"
         style="fill:#4e4e4e" /></g><g
       id="g119"><path
         d="m 55.571,80.313 h 6.922 v 8.644 c -1.879,0.644 -3.945,0.966 -6.198,0.966 -2.472,0 -4.382,-0.717 -5.731,-2.15 -1.349,-1.433 -2.024,-3.477 -2.024,-6.132 0,-2.589 0.739,-4.603 2.216,-6.044 1.477,-1.44 3.547,-2.161 6.208,-2.161 1.009,0 1.962,0.096 2.858,0.285 0.896,0.19 1.676,0.432 2.342,0.725 l -1.371,3.4 c -1.156,-0.57 -2.424,-0.855 -3.807,-0.855 -1.265,0 -2.243,0.411 -2.934,1.233 -0.691,0.823 -1.037,1.999 -1.037,3.527 0,1.499 0.313,2.642 0.938,3.428 0.625,0.786 1.526,1.179 2.704,1.179 0.644,0 1.236,-0.062 1.777,-0.187 v -2.512 h -2.863 v -3.346 z"
         id="path121"
         inkscape:connector-curvature="0"
         style="fill:#4e4e4e" /><path
         d="m 78.026,81.344 c 0,2.677 -0.737,4.739 -2.21,6.187 -1.474,1.448 -3.545,2.172 -6.214,2.172 H 64.414 V 73.665 h 5.551 c 2.574,0 4.561,0.658 5.961,1.975 1.4,1.317 2.1,3.217 2.1,5.704 z m -4.497,0.153 c 0,-1.47 -0.291,-2.56 -0.872,-3.269 -0.581,-0.709 -1.464,-1.063 -2.649,-1.063 h -1.262 v 8.983 h 0.965 c 1.316,0 2.282,-0.382 2.896,-1.146 0.615,-0.764 0.922,-1.933 0.922,-3.505 z"
         id="path123"
         inkscape:connector-curvature="0"
         style="fill:#4e4e4e" /><path
         d="m 85.991,80.313 h 6.922 v 8.644 c -1.879,0.644 -3.945,0.966 -6.198,0.966 -2.472,0 -4.382,-0.717 -5.731,-2.15 -1.349,-1.433 -2.024,-3.477 -2.024,-6.132 0,-2.589 0.739,-4.603 2.216,-6.044 1.477,-1.44 3.547,-2.161 6.208,-2.161 1.009,0 1.962,0.096 2.858,0.285 0.896,0.19 1.676,0.432 2.342,0.725 l -1.371,3.4 c -1.156,-0.57 -2.424,-0.855 -3.807,-0.855 -1.265,0 -2.243,0.411 -2.934,1.233 -0.691,0.823 -1.037,1.999 -1.037,3.527 0,1.499 0.313,2.642 0.938,3.428 0.625,0.786 1.526,1.179 2.704,1.179 0.644,0 1.236,-0.062 1.777,-0.187 v -2.512 h -2.863 v -3.346 z"
         id="path125"
         inkscape:connector-curvature="0"
         style="fill:#4e4e4e" /></g><path
       d="m 8.91,124 h 6.791 c 1.607,0 3.604,-1.128 4.432,-2.511 l 5.72,-9.519 c 0.677,-1.396 0.653,-3.426 -0.119,-4.713 L 22.356,101.665 8.91,124 z"
       id="path132"
       style="fill:url(#radialGradient3649)"
       inkscape:connector-curvature="0" /><path
       d="M 16.209,96.514 1.108,121.763 C 0.524,123.011 1.131,124 2.629,124 H 8.91 L 22.356,101.665 16.21,91.492 c 0.829,1.378 0.829,3.638 -0.001,5.022"
       id="path139"
       style="fill:url(#radialGradient3646)"
       inkscape:connector-curvature="0" /><path
       d="m 2.629,64 c -1.613,0 -2.254,1.133 -1.424,2.511 l 24.529,40.745 c 0.772,1.288 0.795,3.317 0.119,4.713 L 31.816,102.044 8.914,64 H 2.629 z"
       id="path146"
       style="fill:url(#radialGradient3643)"
       inkscape:connector-curvature="0" /><path
       d="m 8.914,64 22.903,38.045 3.321,-5.53 c 0.83,-1.385 0.83,-3.645 0,-5.023 L 20.134,66.512 C 19.305,65.133 17.308,64 15.701,64 H 8.914 z"
       id="path153"
       style="fill:url(#radialGradient3640)"
       inkscape:connector-curvature="0" /><g
       id="g3744"><path
         d="m 120.282,110.886 h -10.251 v -1.841 l 3.9,-3.921 c 1.151,-1.18 1.915,-2.016 2.291,-2.509 0.376,-0.493 0.65,-0.957 0.822,-1.392 0.172,-0.434 0.259,-0.899 0.259,-1.396 0,-0.683 -0.205,-1.221 -0.616,-1.613 -0.41,-0.394 -0.978,-0.59 -1.702,-0.59 -0.579,0 -1.14,0.107 -1.681,0.321 -0.542,0.214 -1.167,0.6 -1.877,1.158 L 110.114,97.5 c 0.841,-0.71 1.659,-1.214 2.452,-1.51 0.793,-0.297 1.638,-0.445 2.535,-0.445 1.407,0 2.534,0.367 3.382,1.102 0.848,0.735 1.272,1.723 1.272,2.964 0,0.683 -0.123,1.331 -0.367,1.944 -0.245,0.614 -0.621,1.247 -1.127,1.898 -0.506,0.651 -1.35,1.533 -2.529,2.644 l -2.627,2.544 v 0.104 h 7.179 v 2.141 z"
         id="path99"
         inkscape:connector-curvature="0"
         style="fill:#4e4e4e" /><path
         d="m 131.104,103.324 c 0,2.627 -0.422,4.579 -1.267,5.854 -0.845,1.276 -2.136,1.914 -3.874,1.914 -1.683,0 -2.958,-0.658 -3.827,-1.976 -0.869,-1.317 -1.304,-3.248 -1.304,-5.793 0,-2.669 0.422,-4.636 1.268,-5.901 0.844,-1.266 2.132,-1.898 3.863,-1.898 1.689,0 2.969,0.662 3.838,1.986 0.869,1.324 1.303,3.262 1.303,5.814 z m -7.811,0 c 0,2.062 0.212,3.534 0.636,4.417 0.424,0.883 1.102,1.324 2.033,1.324 0.931,0 1.612,-0.448 2.043,-1.345 0.431,-0.896 0.646,-2.362 0.646,-4.396 0,-2.027 -0.215,-3.495 -0.646,-4.401 -0.431,-0.907 -1.112,-1.36 -2.043,-1.36 -0.931,0 -1.608,0.444 -2.033,1.334 -0.423,0.889 -0.636,2.365 -0.636,4.427 z"
         id="path101"
         inkscape:connector-curvature="0"
         style="fill:#4e4e4e" /><path
         d="m 138.812,110.886 h -2.431 v -9.766 c 0,-1.165 0.027,-2.089 0.083,-2.771 -0.159,0.165 -0.354,0.348 -0.584,0.548 -0.231,0.2 -1.005,0.835 -2.323,1.903 l -1.22,-1.541 4.448,-3.497 h 2.028 v 15.124 z"
         id="path103"
         inkscape:connector-curvature="0"
         style="fill:#4e4e4e" /><path
         d="m 153.285,107.586 h -2.038 v 3.3 h -2.369 v -3.3 h -6.91 v -1.872 l 6.91,-9.993 h 2.369 v 9.848 h 2.038 v 2.017 z m -4.407,-2.018 v -3.796 c 0,-1.352 0.035,-2.459 0.104,-3.32 h -0.083 c -0.193,0.455 -0.496,1.007 -0.91,1.654 l -3.755,5.462 h 4.644 z"
         id="path105"
         inkscape:connector-curvature="0"
         style="fill:#4e4e4e" /><g
         style="font-size:40px;font-style:normal;font-weight:normal;line-height:125%;letter-spacing:0px;word-spacing:0px;fill:#000000;fill-opacity:1;stroke:none;font-family:Sans"
         id="text3391"><path
           d="m 49.565956,95.089035 2.169922,0 0,6.778325 7.197266,-6.778325 2.792968,0 -7.959961,7.476565 8.529297,8.56152 -2.857422,0 -7.702148,-7.72363 0,7.72363 -2.169922,0 0,-16.038085"
           style="font-size:22px;font-variant:normal;font-stretch:normal;text-align:start;line-height:125%;letter-spacing:-0.87px;writing-mode:lr-tb;text-anchor:start;font-family:Sans;-inkscape-font-specification:Sans"
           id="path3711" /><path
           d="m 66.485019,112.24431 c -0.558601,1.43229 -1.102871,2.36686 -1.632813,2.80371 -0.529953,0.43684 -1.238936,0.65527 -2.126953,0.65527 l -1.579101,0 0,-1.65429 1.160156,0 c 0.544267,-1e-5 0.966793,-0.12891 1.267578,-0.38672 0.300777,-0.25782 0.633784,-0.86654 0.999023,-1.82617 l 0.354493,-0.90235 -4.866211,-11.837889 2.094726,0 3.759766,9.410159 3.759765,-9.410159 2.094727,0 -5.285156,13.148439"
           style="font-size:22px;font-variant:normal;font-stretch:normal;text-align:start;line-height:125%;letter-spacing:-0.87px;writing-mode:lr-tb;text-anchor:start;font-family:Sans;-inkscape-font-specification:Sans"
           id="path3713" /><path
           d="m 78.312284,100.48161 c -1.059901,1e-5 -1.897791,0.41538 -2.513671,1.2461 -0.615889,0.82357 -0.923832,1.95508 -0.923829,3.39453 -3e-6,1.43946 0.304359,2.57455 0.913086,3.40527 0.615881,0.82357 1.457352,1.23535 2.524414,1.23535 1.052727,0 1.887036,-0.41536 2.50293,-1.24609 0.615876,-0.83073 0.923818,-1.96224 0.923828,-3.39453 -1e-5,-1.42512 -0.307952,-2.55305 -0.923828,-3.38379 -0.615894,-0.83788 -1.450203,-1.25683 -2.50293,-1.25684 m 0,-1.675778 c 1.718742,1.2e-5 3.068676,0.558605 4.049805,1.675778 0.981108,1.1172 1.471668,2.66407 1.47168,4.64063 -1.2e-5,1.9694 -0.490572,3.51628 -1.47168,4.64062 -0.981129,1.11719 -2.331063,1.67578 -4.049805,1.67578 -1.725916,0 -3.07943,-0.55859 -4.060546,-1.67578 -0.97396,-1.12434 -1.460939,-2.67122 -1.460938,-4.64062 -10e-7,-1.97656 0.486978,-3.52343 1.460938,-4.64063 0.981116,-1.117173 2.33463,-1.675766 4.060546,-1.675778"
           style="font-size:22px;font-variant:normal;font-stretch:normal;text-align:start;line-height:125%;letter-spacing:-0.87px;writing-mode:lr-tb;text-anchor:start;font-family:Sans;-inkscape-font-specification:Sans"
           id="path3715" /><path
           d="m 88.184471,95.679855 0,3.416016 4.071289,0 0,1.536129 -4.071289,0 0,6.53125 c -4e-6,0.98113 0.132483,1.61133 0.397461,1.89063 0.272131,0.2793 0.819982,0.41895 1.643555,0.41894 l 2.030273,0 0,1.6543 -2.030273,0 c -1.525395,0 -2.578129,-0.28288 -3.158203,-0.84863 -0.580081,-0.57292 -0.87012,-1.61133 -0.870118,-3.11524 l 0,-6.53125 -1.450195,0 0,-1.536129 1.450195,0 0,-3.416016 1.987305,0"
           style="font-size:22px;font-variant:normal;font-stretch:normal;text-align:start;line-height:125%;letter-spacing:-0.87px;writing-mode:lr-tb;text-anchor:start;font-family:Sans;-inkscape-font-specification:Sans"
           id="path3717" /><path
           d="m 98.658222,100.48161 c -1.059901,1e-5 -1.897791,0.41538 -2.513672,1.2461 -0.615889,0.82357 -0.923831,1.95508 -0.923828,3.39453 -3e-6,1.43946 0.304359,2.57455 0.913086,3.40527 0.615881,0.82357 1.457351,1.23535 2.524414,1.23535 1.052727,0 1.887038,-0.41536 2.502928,-1.24609 0.61588,-0.83073 0.92382,-1.96224 0.92383,-3.39453 -1e-5,-1.42512 -0.30795,-2.55305 -0.92383,-3.38379 -0.61589,-0.83788 -1.450201,-1.25683 -2.502928,-1.25684 m 0,-1.675778 c 1.718738,1.2e-5 3.068678,0.558605 4.049808,1.675778 0.9811,1.1172 1.47166,2.66407 1.47168,4.64063 -2e-5,1.9694 -0.49058,3.51628 -1.47168,4.64062 -0.98113,1.11719 -2.33107,1.67578 -4.049808,1.67578 -1.725916,0 -3.079431,-0.55859 -4.060547,-1.67578 -0.97396,-1.12434 -1.460938,-2.67122 -1.460937,-4.64062 -10e-7,-1.97656 0.486977,-3.52343 1.460937,-4.64063 0.981116,-1.117173 2.334631,-1.675766 4.060547,-1.675778"
           style="font-size:22px;font-variant:normal;font-stretch:normal;text-align:start;line-height:125%;letter-spacing:-0.87px;writing-mode:lr-tb;text-anchor:start;font-family:Sans;-inkscape-font-specification:Sans"
           id="path3719" /></g></g></g><g
     id="g3826"><g
       id="g157"><path
         d="m 116.071,143.967 c 0,2.676 -0.731,4.738 -2.193,6.186 -1.462,1.448 -3.518,2.172 -6.166,2.172 h -5.148 V 136.29 h 5.507 c 2.554,0 4.526,0.658 5.916,1.975 1.39,1.317 2.084,3.215 2.084,5.702 z m -4.463,0.153 c 0,-1.47 -0.289,-2.559 -0.866,-3.269 -0.577,-0.709 -1.453,-1.063 -2.628,-1.063 h -1.251 v 8.982 h 0.958 c 1.306,0 2.264,-0.382 2.874,-1.146 0.608,-0.764 0.913,-1.932 0.913,-3.504 z"
         id="path159"
         inkscape:connector-curvature="0"
         style="fill:#e6e6e5" /><path
         d="m 123.287,152.544 c -2.053,0 -3.646,-0.551 -4.782,-1.651 -1.136,-1.1 -1.704,-2.667 -1.704,-4.699 0,-2.099 0.526,-3.709 1.578,-4.831 1.052,-1.123 2.554,-1.684 4.505,-1.684 1.857,0 3.293,0.487 4.305,1.464 1.012,0.977 1.52,2.382 1.52,4.217 v 1.909 H 121.1 c 0.029,0.694 0.281,1.239 0.758,1.634 0.475,0.395 1.121,0.592 1.941,0.592 0.748,0 1.436,-0.071 2.063,-0.214 0.629,-0.143 1.309,-0.385 2.041,-0.729 v 3.081 c -0.668,0.344 -1.357,0.582 -2.068,0.713 -0.712,0.132 -1.56,0.198 -2.548,0.198 z m -0.25,-9.948 c -0.5,0 -0.92,0.159 -1.256,0.478 -0.338,0.317 -0.537,0.816 -0.594,1.497 h 3.656 c -0.014,-0.6 -0.184,-1.079 -0.506,-1.438 -0.321,-0.358 -0.755,-0.537 -1.3,-0.537 z"
         id="path161"
         inkscape:connector-curvature="0"
         style="fill:#e6e6e5" /><path
         d="m 133.009,152.324 -4.702,-12.427 h 4.44 l 2.09,7.349 c 0.008,0.037 0.022,0.099 0.044,0.187 0.022,0.088 0.043,0.192 0.065,0.313 0.021,0.121 0.041,0.249 0.06,0.384 0.018,0.136 0.027,0.262 0.027,0.379 h 0.076 c 0,-0.381 0.065,-0.794 0.195,-1.239 l 2.188,-7.371 h 4.43 l -4.702,12.427 h -4.211 z"
         id="path163"
         inkscape:connector-curvature="0"
         style="fill:#e6e6e5" /><path
         d="m 146.539,152.324 h -4.234 v -16.035 h 9.404 v 3.478 h -5.17 v 3.06 h 4.767 v 3.477 h -4.767 v 6.02 z"
         id="path165"
         inkscape:connector-curvature="0"
         style="fill:#e6e6e5" /><path
         d="m 158.687,152.544 c -2.054,0 -3.647,-0.551 -4.783,-1.651 -1.136,-1.1 -1.703,-2.667 -1.703,-4.699 0,-2.099 0.525,-3.709 1.578,-4.831 1.052,-1.123 2.554,-1.684 4.506,-1.684 1.857,0 3.292,0.487 4.305,1.464 1.012,0.977 1.519,2.382 1.519,4.217 v 1.909 h -7.608 c 0.029,0.694 0.281,1.239 0.757,1.634 0.475,0.395 1.122,0.592 1.942,0.592 0.747,0 1.435,-0.071 2.063,-0.214 0.628,-0.143 1.308,-0.385 2.041,-0.729 v 3.081 c -0.668,0.344 -1.357,0.582 -2.068,0.713 -0.714,0.132 -1.562,0.198 -2.549,0.198 z m -0.25,-9.948 c -0.501,0 -0.92,0.159 -1.257,0.478 -0.338,0.317 -0.536,0.816 -0.594,1.497 h 3.657 c -0.015,-0.6 -0.184,-1.079 -0.506,-1.438 -0.323,-0.358 -0.757,-0.537 -1.3,-0.537 z"
         id="path167"
         inkscape:connector-curvature="0"
         style="fill:#e6e6e5" /><path
         d="m 174.699,148.508 c 0,1.33 -0.45,2.336 -1.35,3.016 -0.9,0.68 -2.191,1.021 -3.875,1.021 -0.914,0 -1.709,-0.05 -2.384,-0.148 -0.675,-0.098 -1.364,-0.279 -2.067,-0.543 v -3.433 c 0.66,0.292 1.384,0.533 2.171,0.724 0.787,0.191 1.489,0.285 2.106,0.285 0.921,0 1.382,-0.212 1.382,-0.636 0,-0.22 -0.129,-0.415 -0.386,-0.587 -0.258,-0.172 -1.007,-0.507 -2.248,-1.004 -1.132,-0.468 -1.923,-1 -2.373,-1.596 -0.449,-0.596 -0.675,-1.351 -0.675,-2.265 0,-1.155 0.442,-2.055 1.328,-2.698 0.885,-0.644 2.137,-0.965 3.755,-0.965 0.813,0 1.576,0.089 2.291,0.269 0.715,0.179 1.457,0.44 2.227,0.784 l -1.154,2.764 c -0.565,-0.256 -1.164,-0.474 -1.796,-0.652 -0.631,-0.18 -1.146,-0.269 -1.546,-0.269 -0.696,0 -1.044,0.172 -1.044,0.516 0,0.212 0.121,0.393 0.364,0.542 0.243,0.15 0.945,0.456 2.106,0.916 0.863,0.358 1.507,0.71 1.932,1.053 0.425,0.344 0.736,0.748 0.936,1.212 0.201,0.463 0.3,1.028 0.3,1.694 z"
         id="path169"
         inkscape:connector-curvature="0"
         style="fill:#e6e6e5" /><path
         d="m 181.764,149.154 c 0.573,0 1.259,-0.143 2.058,-0.428 v 3.126 c -0.573,0.249 -1.119,0.426 -1.639,0.532 -0.519,0.105 -1.126,0.159 -1.822,0.159 -1.43,0 -2.46,-0.354 -3.092,-1.059 -0.631,-0.706 -0.946,-1.79 -0.946,-3.252 v -5.122 h -1.491 v -1.744 l 1.894,-1.349 1.1,-2.61 h 2.786 v 2.489 h 3.025 v 3.214 h -3.025 v 4.837 c -0.002,0.806 0.383,1.207 1.152,1.207 z"
         id="path171"
         inkscape:connector-curvature="0"
         style="fill:#e6e6e5" /></g><g
       id="g195"><path
         d="m 55.729,143.313 h 6.922 v 8.644 c -1.879,0.644 -3.945,0.966 -6.198,0.966 -2.472,0 -4.382,-0.717 -5.731,-2.15 -1.349,-1.433 -2.024,-3.478 -2.024,-6.132 0,-2.589 0.739,-4.604 2.216,-6.044 1.477,-1.44 3.547,-2.161 6.208,-2.161 1.009,0 1.962,0.096 2.858,0.285 0.896,0.19 1.676,0.432 2.342,0.725 l -1.371,3.4 c -1.156,-0.57 -2.424,-0.855 -3.807,-0.855 -1.265,0 -2.243,0.411 -2.934,1.233 -0.691,0.823 -1.037,1.998 -1.037,3.526 0,1.5 0.313,2.643 0.938,3.429 0.625,0.786 1.526,1.179 2.704,1.179 0.644,0 1.236,-0.062 1.777,-0.187 v -2.512 h -2.863 v -3.346 z"
         id="path197"
         inkscape:connector-curvature="0"
         style="fill:#e6e6e5" /><path
         d="m 78.185,144.345 c 0,2.677 -0.737,4.738 -2.21,6.187 -1.473,1.449 -3.545,2.172 -6.214,2.172 h -5.188 v -16.037 h 5.551 c 2.574,0 4.561,0.658 5.961,1.975 1.4,1.317 2.1,3.216 2.1,5.703 z m -4.497,0.153 c 0,-1.47 -0.291,-2.56 -0.872,-3.269 -0.581,-0.709 -1.464,-1.064 -2.649,-1.064 h -1.262 v 8.984 h 0.965 c 1.316,0 2.282,-0.383 2.896,-1.146 0.614,-0.765 0.922,-1.933 0.922,-3.505 z"
         id="path199"
         inkscape:connector-curvature="0"
         style="fill:#e6e6e5" /><path
         d="m 86.15,143.313 h 6.922 v 8.644 c -1.879,0.644 -3.945,0.966 -6.198,0.966 -2.472,0 -4.382,-0.717 -5.731,-2.15 -1.349,-1.433 -2.024,-3.478 -2.024,-6.132 0,-2.589 0.739,-4.604 2.216,-6.044 1.477,-1.44 3.547,-2.161 6.208,-2.161 1.009,0 1.962,0.096 2.858,0.285 0.896,0.19 1.676,0.432 2.342,0.725 l -1.371,3.4 c -1.156,-0.57 -2.424,-0.855 -3.807,-0.855 -1.265,0 -2.243,0.411 -2.934,1.233 -0.691,0.823 -1.037,1.998 -1.037,3.526 0,1.5 0.313,2.643 0.938,3.429 0.625,0.786 1.526,1.179 2.704,1.179 0.644,0 1.236,-0.062 1.777,-0.187 v -2.512 H 86.15 v -3.346 z"
         id="path201"
         inkscape:connector-curvature="0"
         style="fill:#e6e6e5" /></g><path
       d="m 9.068,187 h 6.791 c 1.607,0 3.604,-1.128 4.432,-2.511 l 5.72,-9.519 c 0.677,-1.396 0.653,-3.426 -0.119,-4.713 L 22.514,164.665 9.068,187 z"
       id="path208"
       style="fill:url(#radialGradient3681)"
       inkscape:connector-curvature="0" /><path
       d="M 16.368,159.514 1.266,184.763 C 0.683,186.011 1.289,187 2.787,187 h 6.281 l 13.446,-22.335 -6.146,-10.173 c 0.829,1.378 0.829,3.638 0,5.022"
       id="path215"
       style="fill:url(#radialGradient3678)"
       inkscape:connector-curvature="0" /><path
       d="m 2.787,127 c -1.613,0 -2.254,1.133 -1.424,2.511 l 24.529,40.745 c 0.772,1.288 0.795,3.317 0.119,4.713 L 31.974,165.044 9.072,127 H 2.787 z"
       id="path222"
       style="fill:url(#radialGradient3675)"
       inkscape:connector-curvature="0" /><path
       d="m 9.072,127 22.903,38.045 3.321,-5.53 c 0.83,-1.385 0.83,-3.645 0,-5.023 L 20.292,129.511 C 19.463,128.133 17.467,127 15.86,127 H 9.072 z"
       id="path229"
       style="fill:url(#radialGradient3672)"
       inkscape:connector-curvature="0" /><g
       id="g3756"><path
         d="M 120.441,173.886 H 110.19 v -1.841 l 3.9,-3.921 c 1.151,-1.18 1.915,-2.016 2.291,-2.509 0.376,-0.493 0.65,-0.957 0.822,-1.392 0.172,-0.434 0.259,-0.899 0.259,-1.396 0,-0.683 -0.205,-1.221 -0.616,-1.613 -0.41,-0.394 -0.978,-0.59 -1.702,-0.59 -0.579,0 -1.14,0.107 -1.681,0.321 -0.542,0.214 -1.167,0.6 -1.877,1.158 l -1.314,-1.604 c 0.841,-0.71 1.659,-1.214 2.452,-1.51 0.793,-0.297 1.638,-0.445 2.535,-0.445 1.407,0 2.534,0.367 3.382,1.102 0.848,0.735 1.272,1.723 1.272,2.964 0,0.683 -0.123,1.331 -0.367,1.944 -0.245,0.614 -0.621,1.247 -1.127,1.898 -0.506,0.651 -1.35,1.533 -2.529,2.644 l -2.627,2.544 v 0.104 h 7.179 v 2.142 z"
         id="path175"
         inkscape:connector-curvature="0"
         style="fill:#e6e6e5" /><path
         d="m 131.262,166.324 c 0,2.627 -0.422,4.579 -1.267,5.854 -0.845,1.276 -2.136,1.914 -3.874,1.914 -1.683,0 -2.958,-0.658 -3.827,-1.976 -0.869,-1.317 -1.304,-3.248 -1.304,-5.793 0,-2.669 0.422,-4.636 1.268,-5.901 0.844,-1.266 2.132,-1.898 3.863,-1.898 1.689,0 2.969,0.662 3.838,1.986 0.869,1.324 1.303,3.262 1.303,5.814 z m -7.81,0 c 0,2.062 0.212,3.534 0.636,4.417 0.424,0.883 1.102,1.324 2.033,1.324 0.931,0 1.612,-0.448 2.043,-1.345 0.431,-0.896 0.646,-2.362 0.646,-4.396 0,-2.027 -0.215,-3.495 -0.646,-4.401 -0.431,-0.907 -1.112,-1.36 -2.043,-1.36 -0.931,0 -1.608,0.444 -2.033,1.334 -0.423,0.889 -0.636,2.365 -0.636,4.427 z"
         id="path177"
         inkscape:connector-curvature="0"
         style="fill:#e6e6e5" /><path
         d="m 138.971,173.886 h -2.431 v -9.766 c 0,-1.165 0.027,-2.089 0.083,-2.771 -0.159,0.165 -0.354,0.348 -0.584,0.548 -0.231,0.2 -1.005,0.835 -2.323,1.903 l -1.22,-1.541 4.448,-3.497 h 2.028 v 15.124 z"
         id="path179"
         inkscape:connector-curvature="0"
         style="fill:#e6e6e5" /><path
         d="m 153.443,170.586 h -2.038 v 3.3 h -2.369 v -3.3 h -6.91 v -1.872 l 6.91,-9.993 h 2.369 v 9.848 h 2.038 v 2.017 z m -4.406,-2.018 v -3.796 c 0,-1.352 0.035,-2.459 0.104,-3.32 h -0.083 c -0.193,0.455 -0.496,1.007 -0.91,1.654 l -3.755,5.462 h 4.644 z"
         id="path181"
         inkscape:connector-curvature="0"
         style="fill:#e6e6e5" /><g
         style="font-size:40px;font-style:normal;font-weight:normal;line-height:125%;letter-spacing:-1.49000001px;word-spacing:0px;fill:#e6e6e6;fill-opacity:1;stroke:none;font-family:Sans"
         id="text3452"><path
           d="m 51.947304,158.41954 2.169922,0 0,6.77832 7.197265,-6.77832 2.792969,0 -7.959961,7.47656 8.529297,8.56153 -2.857422,0 -7.702148,-7.72364 0,7.72364 -2.169922,0 0,-16.03809"
           style="font-size:22px;font-variant:normal;font-stretch:normal;text-align:start;line-height:125%;letter-spacing:-0.87px;writing-mode:lr-tb;text-anchor:start;fill:#e6e6e6;font-family:Sans;-inkscape-font-specification:Sans"
           id="path3722" /><path
           d="m 68.866366,175.57481 c -0.5586,1.43229 -1.10287,2.36686 -1.632812,2.80371 -0.529953,0.43685 -1.238937,0.65527 -2.126953,0.65528 l -1.579102,0 0,-1.6543 1.160156,0 c 0.544268,0 0.966793,-0.12891 1.267579,-0.38672 0.300776,-0.25781 0.633784,-0.86654 0.999023,-1.82617 l 0.354492,-0.90234 -4.866211,-11.83789 2.094727,0 3.759765,9.41015 3.759766,-9.41015 2.094727,0 -5.285157,13.14843"
           style="font-size:22px;font-variant:normal;font-stretch:normal;text-align:start;line-height:125%;letter-spacing:-0.87px;writing-mode:lr-tb;text-anchor:start;fill:#e6e6e6;font-family:Sans;-inkscape-font-specification:Sans"
           id="path3724" /><path
           d="m 80.693632,163.81212 c -1.059901,1e-5 -1.897791,0.41537 -2.513672,1.24609 -0.615889,0.82358 -0.923831,1.95509 -0.923828,3.39453 -3e-6,1.43946 0.304359,2.57455 0.913086,3.40528 0.615881,0.82357 1.457351,1.23535 2.524414,1.23535 1.052727,0 1.887036,-0.41536 2.50293,-1.2461 0.615875,-0.83072 0.923818,-1.96223 0.923828,-3.39453 -1e-5,-1.42512 -0.307953,-2.55305 -0.923828,-3.38379 -0.615894,-0.83788 -1.450203,-1.25682 -2.50293,-1.25683 m 0,-1.67578 c 1.718742,1e-5 3.068675,0.5586 4.049805,1.67578 0.981108,1.1172 1.471667,2.66407 1.47168,4.64062 -1.3e-5,1.96941 -0.490572,3.51628 -1.47168,4.64063 -0.98113,1.11719 -2.331063,1.67578 -4.049805,1.67578 -1.725916,0 -3.079431,-0.55859 -4.060547,-1.67578 -0.97396,-1.12435 -1.460938,-2.67122 -1.460937,-4.64063 -1e-6,-1.97655 0.486977,-3.52342 1.460937,-4.64062 0.981116,-1.11718 2.334631,-1.67577 4.060547,-1.67578"
           style="font-size:22px;font-variant:normal;font-stretch:normal;text-align:start;line-height:125%;letter-spacing:-0.87px;writing-mode:lr-tb;text-anchor:start;fill:#e6e6e6;font-family:Sans;-inkscape-font-specification:Sans"
           id="path3726" /><path
           d="m 90.565819,159.01036 0,3.41602 4.071289,0 0,1.53613 -4.071289,0 0,6.53125 c -4e-6,0.98112 0.132483,1.61133 0.397461,1.89062 0.27213,0.2793 0.819981,0.41895 1.643554,0.41895 l 2.030274,0 0,1.6543 -2.030274,0 c -1.525395,0 -2.578128,-0.28288 -3.158203,-0.84864 -0.58008,-0.57291 -0.870119,-1.61132 -0.870117,-3.11523 l 0,-6.53125 -1.450195,0 0,-1.53613 1.450195,0 0,-3.41602 1.987305,0"
           style="font-size:22px;font-variant:normal;font-stretch:normal;text-align:start;line-height:125%;letter-spacing:-0.87px;writing-mode:lr-tb;text-anchor:start;fill:#e6e6e6;font-family:Sans;-inkscape-font-specification:Sans"
           id="path3728" /><path
           d="m 101.03957,163.81212 c -1.059902,1e-5 -1.897791,0.41537 -2.513672,1.24609 -0.615889,0.82358 -0.923831,1.95509 -0.923828,3.39453 -3e-6,1.43946 0.304358,2.57455 0.913086,3.40528 0.61588,0.82357 1.457351,1.23535 2.524414,1.23535 1.05273,0 1.88704,-0.41536 2.50293,-1.2461 0.61588,-0.83072 0.92382,-1.96223 0.92383,-3.39453 -1e-5,-1.42512 -0.30795,-2.55305 -0.92383,-3.38379 -0.61589,-0.83788 -1.4502,-1.25682 -2.50293,-1.25683 m 0,-1.67578 c 1.71874,1e-5 3.06867,0.5586 4.0498,1.67578 0.98111,1.1172 1.47167,2.66407 1.47168,4.64062 -10e-6,1.96941 -0.49057,3.51628 -1.47168,4.64063 -0.98113,1.11719 -2.33106,1.67578 -4.0498,1.67578 -1.725917,0 -3.079431,-0.55859 -4.060547,-1.67578 -0.97396,-1.12435 -1.460939,-2.67122 -1.460938,-4.64063 -10e-7,-1.97655 0.486978,-3.52342 1.460938,-4.64062 0.981116,-1.11718 2.33463,-1.67577 4.060547,-1.67578"
           style="font-size:22px;font-variant:normal;font-stretch:normal;text-align:start;line-height:125%;letter-spacing:-0.87px;writing-mode:lr-tb;text-anchor:start;fill:#e6e6e6;font-family:Sans;-inkscape-font-specification:Sans"
           id="path3730" /></g></g></g></svg>