<?xml version="1.0" encoding="UTF-8" standalone="no"?>
<!-- Generator: Adobe Illustrator 17.1.0, SVG Export Plug-In . SVG Version: 6.00 Build 0)  -->

<svg
   xmlns:dc="http://purl.org/dc/elements/1.1/"
   xmlns:cc="http://creativecommons.org/ns#"
   xmlns:rdf="http://www.w3.org/1999/02/22-rdf-syntax-ns#"
   xmlns:svg="http://www.w3.org/2000/svg"
   xmlns="http://www.w3.org/2000/svg"
   xmlns:sodipodi="http://sodipodi.sourceforge.net/DTD/sodipodi-0.dtd"
   xmlns:inkscape="http://www.inkscape.org/namespaces/inkscape"
   version="1.1"
   id="Layer_1のコピー"
   x="0px"
   y="0px"
   viewBox="0 0 185 188"
   enable-background="new 0 0 185 188"
   xml:space="preserve"
   inkscape:version="0.48.5 r10040"
   width="100%"
   height="100%"
   sodipodi:docname="logos.svg"><metadata
     id="metadata205"><rdf:RDF><cc:Work
         rdf:about=""><dc:format>image/svg+xml</dc:format><dc:type
           rdf:resource="http://purl.org/dc/dcmitype/StillImage" /><dc:title></dc:title></cc:Work></rdf:RDF></metadata><defs
     id="defs203" /><sodipodi:namedview
     pagecolor="#ffffff"
     bordercolor="#666666"
     borderopacity="1"
     objecttolerance="10"
     gridtolerance="10"
     guidetolerance="10"
     inkscape:pageopacity="0"
     inkscape:pageshadow="2"
     inkscape:window-width="640"
     inkscape:window-height="480"
     id="namedview201"
     showgrid="false"
     inkscape:zoom="1.2553191"
     inkscape:cx="92.5"
     inkscape:cy="94"
     inkscape:window-x="0"
     inkscape:window-y="0"
     inkscape:window-maximized="0"
     inkscape:current-layer="Layer_1のコピー" /><g
     id="g3"><g
       id="g5"><path
         fill="#4E4E4E"
         d="M115.9,18c0,2.7-0.7,4.7-2.2,6.2c-1.5,1.4-3.5,2.2-6.2,2.2h-5.1v-16h5.5c2.6,0,4.5,0.7,5.9,2    C115.2,13.6,115.9,15.5,115.9,18z M111.4,18.1c0-1.5-0.3-2.6-0.9-3.3c-0.6-0.7-1.5-1.1-2.6-1.1h-1.3v9h1c1.3,0,2.3-0.4,2.9-1.1    S111.4,19.7,111.4,18.1z"
         id="path7" /><path
         fill="#4E4E4E"
         d="M123.1,26.5c-2.1,0-3.6-0.5-4.8-1.6c-1.1-1.1-1.7-2.7-1.7-4.7c0-2.1,0.5-3.7,1.6-4.8    c1.1-1.1,2.6-1.7,4.5-1.7c1.9,0,3.3,0.5,4.3,1.5s1.5,2.4,1.5,4.2v1.9h-7.6c0,0.7,0.3,1.2,0.8,1.6c0.5,0.4,1.1,0.6,1.9,0.6    c0.7,0,1.4-0.1,2.1-0.2c0.6-0.1,1.3-0.4,2-0.7v3.1c-0.7,0.3-1.4,0.6-2.1,0.7C125,26.5,124.1,26.5,123.1,26.5z M122.9,16.6    c-0.5,0-0.9,0.2-1.3,0.5c-0.3,0.3-0.5,0.8-0.6,1.5h3.7c0-0.6-0.2-1.1-0.5-1.4S123.4,16.6,122.9,16.6z"
         id="path9" /><path
         fill="#4E4E4E"
         d="M132.9,26.3l-4.7-12.4h4.4l2.1,7.3c0,0,0,0.1,0,0.2s0,0.2,0.1,0.3c0,0.1,0,0.2,0.1,0.4c0,0.1,0,0.3,0,0.4    h0.1c0-0.4,0.1-0.8,0.2-1.2l2.2-7.4h4.4l-4.7,12.4L132.9,26.3L132.9,26.3z"
         id="path11" /><path
         fill="#4E4E4E"
         d="M146.4,26.3h-4.2v-16h9.4v3.5h-5.2v3.1h4.8v3.5h-4.8L146.4,26.3L146.4,26.3z"
         id="path13" /><path
         fill="#4E4E4E"
         d="M158.5,26.5c-2.1,0-3.6-0.5-4.8-1.6s-1.7-2.7-1.7-4.7c0-2.1,0.5-3.7,1.6-4.8c1.1-1.1,2.6-1.7,4.5-1.7    c1.9,0,3.3,0.5,4.3,1.5c1,1,1.5,2.4,1.5,4.2v1.9h-7.6c0,0.7,0.3,1.2,0.8,1.6c0.5,0.4,1.1,0.6,1.9,0.6c0.7,0,1.4-0.1,2.1-0.2    s1.3-0.4,2-0.7v3.1c-0.7,0.3-1.4,0.6-2.1,0.7C160.4,26.5,159.5,26.5,158.5,26.5z M158.3,16.6c-0.5,0-0.9,0.2-1.3,0.5    c-0.3,0.3-0.5,0.8-0.6,1.5h3.7c0-0.6-0.2-1.1-0.5-1.4C159.3,16.8,158.8,16.6,158.3,16.6z"
         id="path15" /><path
         fill="#4E4E4E"
         d="M174.5,22.5c0,1.3-0.4,2.3-1.4,3c-0.9,0.7-2.2,1-3.9,1c-0.9,0-1.7,0-2.4-0.1s-1.4-0.3-2.1-0.5v-3.4    c0.7,0.3,1.4,0.5,2.2,0.7s1.5,0.3,2.1,0.3c0.9,0,1.4-0.2,1.4-0.6c0-0.2-0.1-0.4-0.4-0.6c-0.3-0.2-1-0.5-2.2-1    c-1.1-0.5-1.9-1-2.4-1.6c-0.4-0.6-0.7-1.4-0.7-2.3c0-1.2,0.4-2.1,1.3-2.7c0.9-0.6,2.1-1,3.8-1c0.8,0,1.6,0.1,2.3,0.3    s1.5,0.4,2.2,0.8l-1.2,2.8c-0.6-0.3-1.2-0.5-1.8-0.7c-0.6-0.2-1.1-0.3-1.5-0.3c-0.7,0-1,0.2-1,0.5c0,0.2,0.1,0.4,0.4,0.5    s0.9,0.5,2.1,0.9c0.9,0.4,1.5,0.7,1.9,1.1s0.7,0.7,0.9,1.2C174.4,21.3,174.5,21.8,174.5,22.5z"
         id="path17" /><path
         fill="#4E4E4E"
         d="M181.6,23.2c0.6,0,1.3-0.1,2.1-0.4v3.1c-0.6,0.2-1.1,0.4-1.6,0.5c-0.5,0.1-1.1,0.2-1.8,0.2    c-1.4,0-2.5-0.4-3.1-1.1c-0.6-0.7-0.9-1.8-0.9-3.3v-5.1h-1.5v-1.7l1.9-1.3l1.1-2.6h2.8v2.5h3v3.2h-3v4.8    C180.5,22.8,180.8,23.2,181.6,23.2z"
         id="path19" /></g><g
       id="g21"><path
         fill="#4E4E4E"
         d="M126.3,47.9H116V46l3.9-3.9c1.2-1.2,1.9-2,2.3-2.5s0.7-1,0.8-1.4s0.3-0.9,0.3-1.4c0-0.7-0.2-1.2-0.6-1.6    c-0.4-0.4-1-0.6-1.7-0.6c-0.6,0-1.1,0.1-1.7,0.3c-0.5,0.2-1.2,0.6-1.9,1.2l-1.3-1.6c0.8-0.7,1.7-1.2,2.5-1.5s1.6-0.4,2.5-0.4    c1.4,0,2.5,0.4,3.4,1.1c0.8,0.7,1.3,1.7,1.3,3c0,0.7-0.1,1.3-0.4,1.9c-0.2,0.6-0.6,1.2-1.1,1.9c-0.5,0.7-1.4,1.5-2.5,2.6l-2.6,2.5    v0.1h7.2L126.3,47.9L126.3,47.9z"
         id="path23" /><path
         fill="#4E4E4E"
         d="M137.1,40.3c0,2.6-0.4,4.6-1.3,5.9c-0.8,1.3-2.1,1.9-3.9,1.9c-1.7,0-3-0.7-3.8-2s-1.3-3.2-1.3-5.8    c0-2.7,0.4-4.6,1.3-5.9c0.8-1.3,2.1-1.9,3.9-1.9c1.7,0,3,0.7,3.8,2C136.7,35.8,137.1,37.8,137.1,40.3z M129.3,40.3    c0,2.1,0.2,3.5,0.6,4.4c0.4,0.9,1.1,1.3,2,1.3s1.6-0.4,2-1.3c0.4-0.9,0.6-2.4,0.6-4.4c0-2-0.2-3.5-0.6-4.4c-0.4-0.9-1.1-1.4-2-1.4    s-1.6,0.4-2,1.3C129.5,36.8,129.3,38.3,129.3,40.3z"
         id="path25" /><path
         fill="#4E4E4E"
         d="M144.8,47.9h-2.4v-9.8c0-1.2,0-2.1,0.1-2.8c-0.2,0.2-0.4,0.3-0.6,0.5c-0.2,0.2-1,0.8-2.3,1.9l-1.2-1.5    l4.4-3.5h2L144.8,47.9L144.8,47.9z"
         id="path27" /><path
         fill="#4E4E4E"
         d="M159.3,44.6h-2v3.3h-2.4v-3.3H148v-1.9l6.9-10h2.4v9.8h2C159.3,42.6,159.3,44.6,159.3,44.6z M154.9,42.6    v-3.8c0-1.4,0-2.5,0.1-3.3h-0.1c-0.2,0.5-0.5,1-0.9,1.7l-3.8,5.5H154.9z"
         id="path29" /></g><g
       id="g31"><path
         fill="#4E4E4E"
         d="M55.6,17.3h6.9V26c-1.9,0.6-3.9,1-6.2,1c-2.5,0-4.4-0.7-5.7-2.1c-1.3-1.4-2-3.5-2-6.1c0-2.6,0.7-4.6,2.2-6    c1.5-1.4,3.5-2.2,6.2-2.2c1,0,2,0.1,2.9,0.3s1.7,0.4,2.3,0.7l-1.4,3.4C59.6,14.3,58.4,14,57,14c-1.3,0-2.2,0.4-2.9,1.2    c-0.7,0.8-1,2-1,3.5c0,1.5,0.3,2.6,0.9,3.4s1.5,1.2,2.7,1.2c0.6,0,1.2-0.1,1.8-0.2v-2.5h-2.9C55.6,20.7,55.6,17.3,55.6,17.3z"
         id="path33" /><path
         fill="#4E4E4E"
         d="M78,18.3c0,2.7-0.7,4.7-2.2,6.2s-3.5,2.2-6.2,2.2h-5.2v-16H70c2.6,0,4.6,0.7,6,2S78,15.9,78,18.3z     M73.5,18.5c0-1.5-0.3-2.6-0.9-3.3c-0.6-0.7-1.5-1.1-2.6-1.1h-1.3v9h1c1.3,0,2.3-0.4,2.9-1.1S73.5,20.1,73.5,18.5z"
         id="path35" /><path
         fill="#4E4E4E"
         d="M86,17.3h6.9V26c-1.9,0.6-3.9,1-6.2,1c-2.5,0-4.4-0.7-5.7-2.1c-1.3-1.4-2-3.5-2-6.1c0-2.6,0.7-4.6,2.2-6    c1.5-1.4,3.5-2.2,6.2-2.2c1,0,2,0.1,2.9,0.3s1.7,0.4,2.3,0.7l-1.4,3.4c-1.2-0.6-2.4-0.9-3.8-0.9c-1.3,0-2.2,0.4-2.9,1.2    c-0.7,0.8-1,2-1,3.5c0,1.5,0.3,2.6,0.9,3.4s1.5,1.2,2.7,1.2c0.6,0,1.2-0.1,1.8-0.2v-2.5H86C86,20.7,86,17.3,86,17.3z"
         id="path37" /></g><radialGradient
       id="SVGID_1_"
       cx="20.0623"
       cy="44.7023"
       r="20.1129"
       gradientTransform="matrix(0.498 0 0 -0.498 7.6331 72.0942)"
       gradientUnits="userSpaceOnUse"><stop
         offset="0"
         style="stop-color:#FFCF4F"
         id="stop40" /><stop
         offset="1"
         style="stop-color:#F4C236"
         id="stop42" /></radialGradient><path
       fill="url(#SVGID_1_)"
       d="M8.9,61h6.8c1.6,0,3.6-1.1,4.4-2.5l5.7-9.5c0.7-1.4,0.7-3.4-0.1-4.7l-3.4-5.6L8.9,61z"
       id="path44" /><radialGradient
       id="SVGID_2_"
       cx="8.0104"
       cy="54.9161"
       r="27.6571"
       gradientTransform="matrix(0.498 0 0 -0.498 7.6331 72.0942)"
       gradientUnits="userSpaceOnUse"><stop
         offset="0"
         style="stop-color:#08A960"
         id="stop47" /><stop
         offset="1"
         style="stop-color:#07914B"
         id="stop49" /></radialGradient><path
       fill="url(#SVGID_2_)"
       d="M16.2,33.5L1.1,58.8C0.5,60,1.1,61,2.6,61h6.3l13.4-22.3l-6.1-10.2C17,29.9,17,32.1,16.2,33.5"
       id="path51" /><radialGradient
       id="SVGID_3_"
       cx="17.4611"
       cy="94.5979"
       r="40.5382"
       gradientTransform="matrix(0.498 0 0 -0.498 7.6331 72.0942)"
       gradientUnits="userSpaceOnUse"><stop
         offset="0"
         style="stop-color:#567FC0"
         id="stop54" /><stop
         offset="1"
         style="stop-color:#557FC0"
         id="stop56" /></radialGradient><path
       fill="url(#SVGID_3_)"
       d="M2.6,1C1,1,0.4,2.1,1.2,3.5l24.5,40.7c0.8,1.3,0.8,3.3,0.1,4.7l6-9.9L8.9,1H2.6z"
       id="path58" /><radialGradient
       id="SVGID_4_"
       cx="29.5264"
       cy="104.5617"
       r="33.0576"
       gradientTransform="matrix(0.498 0 0 -0.498 7.6331 72.0942)"
       gradientUnits="userSpaceOnUse"><stop
         offset="0"
         style="stop-color:#E14C40"
         id="stop61" /><stop
         offset="1"
         style="stop-color:#CD392D"
         id="stop63" /></radialGradient><path
       fill="url(#SVGID_4_)"
       d="M8.9,1l22.9,38l3.3-5.5c0.8-1.4,0.8-3.6,0-5l-15-25C19.3,2.1,17.3,1,15.7,1H8.9z"
       id="path65" /></g><g
     id="g67"><g
       id="g69"><path
         fill="#4E4E4E"
         d="M115.9,81c0,2.7-0.7,4.7-2.2,6.2c-1.5,1.4-3.5,2.2-6.2,2.2h-5.1v-16h5.5c2.6,0,4.5,0.7,5.9,2    S115.9,78.5,115.9,81z M111.4,81.1c0-1.5-0.3-2.6-0.9-3.3c-0.6-0.7-1.5-1.1-2.6-1.1h-1.3v9h1c1.3,0,2.3-0.4,2.9-1.1    C111.1,83.9,111.4,82.7,111.4,81.1z"
         id="path71" /><path
         fill="#4E4E4E"
         d="M123.1,89.5c-2.1,0-3.6-0.6-4.8-1.7c-1.1-1.1-1.7-2.7-1.7-4.7c0-2.1,0.5-3.7,1.6-4.8    c1.1-1.1,2.6-1.7,4.5-1.7c1.9,0,3.3,0.5,4.3,1.5c1,1,1.5,2.4,1.5,4.2v1.9h-7.6c0,0.7,0.3,1.2,0.8,1.6c0.5,0.4,1.1,0.6,1.9,0.6    c0.7,0,1.4-0.1,2.1-0.2c0.6-0.1,1.3-0.4,2-0.7v3.1c-0.7,0.3-1.4,0.6-2.1,0.7C125,89.5,124.1,89.5,123.1,89.5z M122.9,79.6    c-0.5,0-0.9,0.2-1.3,0.5c-0.3,0.3-0.5,0.8-0.6,1.5h3.7c0-0.6-0.2-1.1-0.5-1.4S123.4,79.6,122.9,79.6z"
         id="path73" /><path
         fill="#4E4E4E"
         d="M132.9,89.3l-4.7-12.4h4.4l2.1,7.3c0,0,0,0.1,0,0.2s0,0.2,0.1,0.3c0,0.1,0,0.2,0.1,0.4c0,0.1,0,0.3,0,0.4    h0.1c0-0.4,0.1-0.8,0.2-1.2l2.2-7.4h4.4l-4.7,12.4L132.9,89.3L132.9,89.3z"
         id="path75" /><path
         fill="#4E4E4E"
         d="M146.4,89.3h-4.2v-16h9.4v3.5h-5.2v3.1h4.8v3.5h-4.8L146.4,89.3L146.4,89.3z"
         id="path77" /><path
         fill="#4E4E4E"
         d="M158.5,89.5c-2.1,0-3.6-0.6-4.8-1.7s-1.7-2.7-1.7-4.7c0-2.1,0.5-3.7,1.6-4.8c1.1-1.1,2.6-1.7,4.5-1.7    c1.9,0,3.3,0.5,4.3,1.5c1,1,1.5,2.4,1.5,4.2v1.9h-7.6c0,0.7,0.3,1.2,0.8,1.6c0.5,0.4,1.1,0.6,1.9,0.6c0.7,0,1.4-0.1,2.1-0.2    s1.3-0.4,2-0.7v3.1c-0.7,0.3-1.4,0.6-2.1,0.7C160.4,89.5,159.5,89.5,158.5,89.5z M158.3,79.6c-0.5,0-0.9,0.2-1.3,0.5    c-0.3,0.3-0.5,0.8-0.6,1.5h3.7c0-0.6-0.2-1.1-0.5-1.4C159.3,79.8,158.8,79.6,158.3,79.6z"
         id="path79" /><path
         fill="#4E4E4E"
         d="M174.5,85.5c0,1.3-0.4,2.3-1.4,3c-0.9,0.7-2.2,1-3.9,1c-0.9,0-1.7-0.1-2.4-0.1s-1.4-0.3-2.1-0.5v-3.4    c0.7,0.3,1.4,0.5,2.2,0.7s1.5,0.3,2.1,0.3c0.9,0,1.4-0.2,1.4-0.6c0-0.2-0.1-0.4-0.4-0.6c-0.3-0.2-1-0.5-2.2-1    c-1.1-0.5-1.9-1-2.4-1.6c-0.4-0.6-0.7-1.4-0.7-2.3c0-1.2,0.4-2.1,1.3-2.7c0.9-0.6,2.1-1,3.8-1c0.8,0,1.6,0.1,2.3,0.3    c0.7,0.2,1.5,0.4,2.2,0.8l-1.2,2.8c-0.6-0.3-1.2-0.5-1.8-0.7c-0.6-0.2-1.1-0.3-1.5-0.3c-0.7,0-1,0.2-1,0.5c0,0.2,0.1,0.4,0.4,0.5    c0.2,0.1,0.9,0.5,2.1,0.9c0.9,0.4,1.5,0.7,1.9,1.1s0.7,0.7,0.9,1.2C174.4,84.3,174.5,84.8,174.5,85.5z"
         id="path81" /><path
         fill="#4E4E4E"
         d="M181.6,86.2c0.6,0,1.3-0.1,2.1-0.4v3.1c-0.6,0.2-1.1,0.4-1.6,0.5c-0.5,0.1-1.1,0.2-1.8,0.2    c-1.4,0-2.5-0.4-3.1-1.1c-0.6-0.7-0.9-1.8-0.9-3.3v-5.1h-1.5v-1.7l1.9-1.3l1.1-2.6h2.8v2.5h3v3.2h-3v4.8    C180.5,85.8,180.8,86.2,181.6,86.2z"
         id="path83" /></g><g
       id="g85"><path
         fill="#4E4E4E"
         d="M126.3,110.9H116V109l3.9-3.9c1.2-1.2,1.9-2,2.3-2.5s0.7-1,0.8-1.4c0.2-0.4,0.3-0.9,0.3-1.4    c0-0.7-0.2-1.2-0.6-1.6c-0.4-0.4-1-0.6-1.7-0.6c-0.6,0-1.1,0.1-1.7,0.3c-0.5,0.2-1.2,0.6-1.9,1.2l-1.3-1.6    c0.8-0.7,1.7-1.2,2.5-1.5c0.8-0.3,1.6-0.4,2.5-0.4c1.4,0,2.5,0.4,3.4,1.1c0.8,0.7,1.3,1.7,1.3,3c0,0.7-0.1,1.3-0.4,1.9    c-0.2,0.6-0.6,1.2-1.1,1.9c-0.5,0.7-1.4,1.5-2.5,2.6l-2.6,2.5v0.1h7.2L126.3,110.9L126.3,110.9z"
         id="path87" /><path
         fill="#4E4E4E"
         d="M137.1,103.3c0,2.6-0.4,4.6-1.3,5.9c-0.8,1.3-2.1,1.9-3.9,1.9c-1.7,0-3-0.7-3.8-2    c-0.9-1.3-1.3-3.2-1.3-5.8c0-2.7,0.4-4.6,1.3-5.9c0.8-1.3,2.1-1.9,3.9-1.9c1.7,0,3,0.7,3.8,2S137.1,100.8,137.1,103.3z     M129.3,103.3c0,2.1,0.2,3.5,0.6,4.4s1.1,1.3,2,1.3s1.6-0.4,2-1.3c0.4-0.9,0.6-2.4,0.6-4.4c0-2-0.2-3.5-0.6-4.4    c-0.4-0.9-1.1-1.4-2-1.4s-1.6,0.4-2,1.3C129.5,99.8,129.3,101.3,129.3,103.3z"
         id="path89" /><path
         fill="#4E4E4E"
         d="M144.8,110.9h-2.4v-9.8c0-1.2,0-2.1,0.1-2.8c-0.2,0.2-0.4,0.3-0.6,0.5c-0.2,0.2-1,0.8-2.3,1.9l-1.2-1.5    l4.4-3.5h2L144.8,110.9L144.8,110.9z"
         id="path91" /><path
         fill="#4E4E4E"
         d="M159.3,107.6h-2v3.3h-2.4v-3.3H148v-1.9l6.9-10h2.4v9.8h2C159.3,105.6,159.3,107.6,159.3,107.6z     M154.9,105.6v-3.8c0-1.4,0-2.5,0.1-3.3h-0.1c-0.2,0.5-0.5,1-0.9,1.7l-3.8,5.5H154.9z"
         id="path93" /></g><g
       id="g95"><path
         fill="#4E4E4E"
         d="M55.6,80.3h6.9V89c-1.9,0.6-3.9,1-6.2,1c-2.5,0-4.4-0.7-5.7-2.2s-2-3.5-2-6.1c0-2.6,0.7-4.6,2.2-6    c1.5-1.4,3.5-2.2,6.2-2.2c1,0,2,0.1,2.9,0.3c0.9,0.2,1.7,0.4,2.3,0.7l-1.4,3.4C59.6,77.3,58.4,77,57,77c-1.3,0-2.2,0.4-2.9,1.2    c-0.7,0.8-1,2-1,3.5c0,1.5,0.3,2.6,0.9,3.4s1.5,1.2,2.7,1.2c0.6,0,1.2-0.1,1.8-0.2v-2.5h-2.9C55.6,83.7,55.6,80.3,55.6,80.3z"
         id="path97" /><path
         fill="#4E4E4E"
         d="M78,81.3c0,2.7-0.7,4.7-2.2,6.2c-1.5,1.4-3.5,2.2-6.2,2.2h-5.2v-16H70c2.6,0,4.6,0.7,6,2S78,78.9,78,81.3z     M73.5,81.5c0-1.5-0.3-2.6-0.9-3.3s-1.5-1.1-2.6-1.1h-1.3v9h1c1.3,0,2.3-0.4,2.9-1.1C73.2,84.2,73.5,83.1,73.5,81.5z"
         id="path99" /><path
         fill="#4E4E4E"
         d="M86,80.3h6.9V89c-1.9,0.6-3.9,1-6.2,1c-2.5,0-4.4-0.7-5.7-2.2s-2-3.5-2-6.1c0-2.6,0.7-4.6,2.2-6    c1.5-1.4,3.5-2.2,6.2-2.2c1,0,2,0.1,2.9,0.3c0.9,0.2,1.7,0.4,2.3,0.7l-1.4,3.4c-1.2-0.6-2.4-0.9-3.8-0.9c-1.3,0-2.2,0.4-2.9,1.2    c-0.7,0.8-1,2-1,3.5c0,1.5,0.3,2.6,0.9,3.4s1.5,1.2,2.7,1.2c0.6,0,1.2-0.1,1.8-0.2v-2.5H86C86,83.7,86,80.3,86,80.3z"
         id="path101" /></g><radialGradient
       id="SVGID_5_"
       cx="20.0623"
       cy="-81.8037"
       r="20.1129"
       gradientTransform="matrix(0.498 0 0 -0.498 7.6331 72.0942)"
       gradientUnits="userSpaceOnUse"><stop
         offset="0"
         style="stop-color:#CCCCCC"
         id="stop104" /><stop
         offset="1"
         style="stop-color:#C0C0C0"
         id="stop106" /></radialGradient><path
       fill="url(#SVGID_5_)"
       d="M8.9,124h6.8c1.6,0,3.6-1.1,4.4-2.5l5.7-9.5c0.7-1.4,0.7-3.4-0.1-4.7l-3.4-5.6L8.9,124z"
       id="path108" /><radialGradient
       id="SVGID_6_"
       cx="8.0104"
       cy="-71.5899"
       r="27.6571"
       gradientTransform="matrix(0.498 0 0 -0.498 7.6331 72.0942)"
       gradientUnits="userSpaceOnUse"><stop
         offset="0"
         style="stop-color:#A0A0A0"
         id="stop111" /><stop
         offset="1"
         style="stop-color:#7B7B7B"
         id="stop113" /></radialGradient><path
       fill="url(#SVGID_6_)"
       d="M16.2,96.5L1.1,121.8c-0.6,1.2,0,2.2,1.5,2.2h6.3l13.4-22.3l-6.1-10.2C17,92.9,17,95.1,16.2,96.5"
       id="path115" /><radialGradient
       id="SVGID_7_"
       cx="17.4613"
       cy="-31.9082"
       r="40.5381"
       gradientTransform="matrix(0.498 0 0 -0.498 7.6331 72.0942)"
       gradientUnits="userSpaceOnUse"><stop
         offset="0"
         style="stop-color:#848484"
         id="stop118" /><stop
         offset="1"
         style="stop-color:#838383"
         id="stop120" /></radialGradient><path
       fill="url(#SVGID_7_)"
       d="M2.6,64c-1.6,0-2.3,1.1-1.4,2.5l24.5,40.7c0.8,1.3,0.8,3.3,0.1,4.7l6-9.9L8.9,64H2.6z"
       id="path122" /><radialGradient
       id="SVGID_8_"
       cx="29.5264"
       cy="-21.9443"
       r="33.0576"
       gradientTransform="matrix(0.498 0 0 -0.498 7.6331 72.0942)"
       gradientUnits="userSpaceOnUse"><stop
         offset="0"
         style="stop-color:#626262"
         id="stop125" /><stop
         offset="1"
         style="stop-color:#474747"
         id="stop127" /></radialGradient><path
       fill="url(#SVGID_8_)"
       d="M8.9,64l22.9,38l3.3-5.5c0.8-1.4,0.8-3.6,0-5l-15-25c-0.8-1.4-2.8-2.5-4.4-2.5H8.9z"
       id="path129" /></g><g
     id="g131"><g
       id="g133"><path
         fill="#E6E6E5"
         d="M116.1,144c0,2.7-0.7,4.7-2.2,6.2s-3.5,2.2-6.2,2.2h-5.1v-16h5.5c2.6,0,4.5,0.7,5.9,2    S116.1,141.5,116.1,144z M111.6,144.1c0-1.5-0.3-2.6-0.9-3.3c-0.6-0.7-1.5-1.1-2.6-1.1h-1.3v9h1c1.3,0,2.3-0.4,2.9-1.1    C111.3,146.9,111.6,145.7,111.6,144.1z"
         id="path135" /><path
         fill="#E6E6E5"
         d="M123.3,152.5c-2.1,0-3.6-0.6-4.8-1.7s-1.7-2.7-1.7-4.7c0-2.1,0.5-3.7,1.6-4.8c1.1-1.1,2.6-1.7,4.5-1.7    c1.9,0,3.3,0.5,4.3,1.5s1.5,2.4,1.5,4.2v1.9h-7.6c0,0.7,0.3,1.2,0.8,1.6c0.5,0.4,1.1,0.6,1.9,0.6c0.7,0,1.4-0.1,2.1-0.2    c0.6-0.1,1.3-0.4,2-0.7v3.1c-0.7,0.3-1.4,0.6-2.1,0.7C125.1,152.5,124.3,152.5,123.3,152.5z M123,142.6c-0.5,0-0.9,0.2-1.3,0.5    c-0.3,0.3-0.5,0.8-0.6,1.5h3.7c0-0.6-0.2-1.1-0.5-1.4C124,142.8,123.6,142.6,123,142.6z"
         id="path137" /><path
         fill="#E6E6E5"
         d="M133,152.3l-4.7-12.4h4.4l2.1,7.3c0,0,0,0.1,0,0.2s0,0.2,0.1,0.3c0,0.1,0,0.2,0.1,0.4c0,0.1,0,0.3,0,0.4    h0.1c0-0.4,0.1-0.8,0.2-1.2l2.2-7.4h4.4l-4.7,12.4L133,152.3L133,152.3z"
         id="path139" /><path
         fill="#E6E6E5"
         d="M146.5,152.3h-4.2v-16h9.4v3.5h-5.2v3.1h4.8v3.5h-4.8L146.5,152.3L146.5,152.3z"
         id="path141" /><path
         fill="#E6E6E5"
         d="M158.7,152.5c-2.1,0-3.6-0.6-4.8-1.7s-1.7-2.7-1.7-4.7c0-2.1,0.5-3.7,1.6-4.8c1.1-1.1,2.6-1.7,4.5-1.7    c1.9,0,3.3,0.5,4.3,1.5c1,1,1.5,2.4,1.5,4.2v1.9h-7.6c0,0.7,0.3,1.2,0.8,1.6c0.5,0.4,1.1,0.6,1.9,0.6c0.7,0,1.4-0.1,2.1-0.2    s1.3-0.4,2-0.7v3.1c-0.7,0.3-1.4,0.6-2.1,0.7C160.5,152.5,159.7,152.5,158.7,152.5z M158.4,142.6c-0.5,0-0.9,0.2-1.3,0.5    c-0.3,0.3-0.5,0.8-0.6,1.5h3.7c0-0.6-0.2-1.1-0.5-1.4C159.4,142.8,159,142.6,158.4,142.6z"
         id="path143" /><path
         fill="#E6E6E5"
         d="M174.7,148.5c0,1.3-0.4,2.3-1.4,3c-0.9,0.7-2.2,1-3.9,1c-0.9,0-1.7-0.1-2.4-0.1s-1.4-0.3-2.1-0.5v-3.4    c0.7,0.3,1.4,0.5,2.2,0.7s1.5,0.3,2.1,0.3c0.9,0,1.4-0.2,1.4-0.6c0-0.2-0.1-0.4-0.4-0.6c-0.3-0.2-1-0.5-2.2-1    c-1.1-0.5-1.9-1-2.4-1.6c-0.4-0.6-0.7-1.4-0.7-2.3c0-1.2,0.4-2.1,1.3-2.7c0.9-0.6,2.1-1,3.8-1c0.8,0,1.6,0.1,2.3,0.3    c0.7,0.2,1.5,0.4,2.2,0.8l-1.2,2.8c-0.6-0.3-1.2-0.5-1.8-0.7c-0.6-0.2-1.1-0.3-1.5-0.3c-0.7,0-1,0.2-1,0.5c0,0.2,0.1,0.4,0.4,0.5    c0.2,0.1,0.9,0.5,2.1,0.9c0.9,0.4,1.5,0.7,1.9,1.1c0.4,0.3,0.7,0.7,0.9,1.2C174.6,147.3,174.7,147.8,174.7,148.5z"
         id="path145" /><path
         fill="#E6E6E5"
         d="M181.8,149.2c0.6,0,1.3-0.1,2.1-0.4v3.1c-0.6,0.2-1.1,0.4-1.6,0.5c-0.5,0.1-1.1,0.2-1.8,0.2    c-1.4,0-2.5-0.4-3.1-1.1c-0.6-0.7-0.9-1.8-0.9-3.3v-5.1h-1.5v-1.7l1.9-1.3l1.1-2.6h2.8v2.5h3v3.2h-3v4.8    C180.6,148.8,181,149.2,181.8,149.2z"
         id="path147" /></g><g
       id="g149"><path
         fill="#E6E6E5"
         d="M126.4,173.9h-10.3V172l3.9-3.9c1.2-1.2,1.9-2,2.3-2.5c0.4-0.5,0.7-1,0.8-1.4c0.2-0.4,0.3-0.9,0.3-1.4    c0-0.7-0.2-1.2-0.6-1.6c-0.4-0.4-1-0.6-1.7-0.6c-0.6,0-1.1,0.1-1.7,0.3c-0.5,0.2-1.2,0.6-1.9,1.2l-1.3-1.6    c0.8-0.7,1.7-1.2,2.5-1.5c0.8-0.3,1.6-0.4,2.5-0.4c1.4,0,2.5,0.4,3.4,1.1s1.3,1.7,1.3,3c0,0.7-0.1,1.3-0.4,1.9    c-0.2,0.6-0.6,1.2-1.1,1.9s-1.3,1.5-2.5,2.6l-2.6,2.5v0.1h7.2L126.4,173.9L126.4,173.9z"
         id="path151" /><path
         fill="#E6E6E5"
         d="M137.3,166.3c0,2.6-0.4,4.6-1.3,5.9c-0.8,1.3-2.1,1.9-3.9,1.9c-1.7,0-3-0.7-3.8-2    c-0.9-1.3-1.3-3.2-1.3-5.8c0-2.7,0.4-4.6,1.3-5.9c0.8-1.3,2.1-1.9,3.9-1.9c1.7,0,3,0.7,3.8,2S137.3,163.8,137.3,166.3z     M129.5,166.3c0,2.1,0.2,3.5,0.6,4.4s1.1,1.3,2,1.3s1.6-0.4,2-1.3c0.4-0.9,0.6-2.4,0.6-4.4c0-2-0.2-3.5-0.6-4.4    c-0.4-0.9-1.1-1.4-2-1.4s-1.6,0.4-2,1.3C129.7,162.8,129.5,164.3,129.5,166.3z"
         id="path153" /><path
         fill="#E6E6E5"
         d="M145,173.9h-2.4v-9.8c0-1.2,0-2.1,0.1-2.8c-0.2,0.2-0.4,0.3-0.6,0.5c-0.2,0.2-1,0.8-2.3,1.9l-1.2-1.5    l4.4-3.5h2L145,173.9L145,173.9z"
         id="path155" /><path
         fill="#E6E6E5"
         d="M159.4,170.6h-2v3.3H155v-3.3h-6.9v-1.9l6.9-10h2.4v9.8h2V170.6z M155,168.6v-3.8c0-1.4,0-2.5,0.1-3.3    h-0.1c-0.2,0.5-0.5,1-0.9,1.7l-3.8,5.5H155z"
         id="path157" /></g><g
       id="g159"><path
         fill="#E6E6E5"
         d="M55.7,143.3h6.9v8.6c-1.9,0.6-3.9,1-6.2,1c-2.5,0-4.4-0.7-5.7-2.1s-2-3.5-2-6.1c0-2.6,0.7-4.6,2.2-6    s3.5-2.2,6.2-2.2c1,0,2,0.1,2.9,0.3c0.9,0.2,1.7,0.4,2.3,0.7l-1.4,3.4c-1.2-0.6-2.4-0.9-3.8-0.9c-1.3,0-2.2,0.4-2.9,1.2    c-0.7,0.8-1,2-1,3.5c0,1.5,0.3,2.6,0.9,3.4s1.5,1.2,2.7,1.2c0.6,0,1.2-0.1,1.8-0.2v-2.5h-2.9C55.7,146.7,55.7,143.3,55.7,143.3z"
         id="path161" /><path
         fill="#E6E6E5"
         d="M78.2,144.3c0,2.7-0.7,4.7-2.2,6.2s-3.5,2.2-6.2,2.2h-5.2v-16h5.6c2.6,0,4.6,0.7,6,2    S78.2,141.9,78.2,144.3z M73.7,144.5c0-1.5-0.3-2.6-0.9-3.3s-1.5-1.1-2.6-1.1h-1.3v9h1c1.3,0,2.3-0.4,2.9-1.1    C73.4,147.2,73.7,146.1,73.7,144.5z"
         id="path163" /><path
         fill="#E6E6E5"
         d="M86.2,143.3h6.9v8.6c-1.9,0.6-3.9,1-6.2,1c-2.5,0-4.4-0.7-5.7-2.1s-2-3.5-2-6.1c0-2.6,0.7-4.6,2.2-6    s3.5-2.2,6.2-2.2c1,0,2,0.1,2.9,0.3c0.9,0.2,1.7,0.4,2.3,0.7l-1.4,3.4c-1.2-0.6-2.4-0.9-3.8-0.9c-1.3,0-2.2,0.4-2.9,1.2    c-0.7,0.8-1,2-1,3.5c0,1.5,0.3,2.6,0.9,3.4s1.5,1.2,2.7,1.2c0.6,0,1.2-0.1,1.8-0.2v-2.5h-2.9V143.3z"
         id="path165" /></g><radialGradient
       id="SVGID_9_"
       cx="20.3795"
       cy="-208.3098"
       r="20.1129"
       gradientTransform="matrix(0.498 0 0 -0.498 7.6331 72.0942)"
       gradientUnits="userSpaceOnUse"><stop
         offset="0"
         style="stop-color:#FFCF4F"
         id="stop168" /><stop
         offset="1"
         style="stop-color:#F4C236"
         id="stop170" /></radialGradient><path
       fill="url(#SVGID_9_)"
       d="M9.1,187h6.8c1.6,0,3.6-1.1,4.4-2.5L26,175c0.7-1.4,0.7-3.4-0.1-4.7l-3.4-5.6L9.1,187z"
       id="path172" /><radialGradient
       id="SVGID_10_"
       cx="8.3281"
       cy="-198.0959"
       r="27.657"
       gradientTransform="matrix(0.498 0 0 -0.498 7.6331 72.0942)"
       gradientUnits="userSpaceOnUse"><stop
         offset="0"
         style="stop-color:#08A960"
         id="stop175" /><stop
         offset="1"
         style="stop-color:#07914B"
         id="stop177" /></radialGradient><path
       fill="url(#SVGID_10_)"
       d="M16.4,159.5L1.3,184.8c-0.6,1.2,0,2.2,1.5,2.2h6.3l13.4-22.3l-6.1-10.2   C17.2,155.9,17.2,158.1,16.4,159.5"
       id="path179" /><radialGradient
       id="SVGID_11_"
       cx="17.7786"
       cy="-158.4142"
       r="40.5381"
       gradientTransform="matrix(0.498 0 0 -0.498 7.6331 72.0942)"
       gradientUnits="userSpaceOnUse"><stop
         offset="0"
         style="stop-color:#567FC0"
         id="stop182" /><stop
         offset="1"
         style="stop-color:#557FC0"
         id="stop184" /></radialGradient><path
       fill="url(#SVGID_11_)"
       d="M2.8,127c-1.6,0-2.3,1.1-1.4,2.5l24.5,40.7c0.8,1.3,0.8,3.3,0.1,4.7l6-9.9L9.1,127H2.8z"
       id="path186" /><radialGradient
       id="SVGID_12_"
       cx="29.8437"
       cy="-148.4503"
       r="33.0576"
       gradientTransform="matrix(0.498 0 0 -0.498 7.6331 72.0942)"
       gradientUnits="userSpaceOnUse"><stop
         offset="0"
         style="stop-color:#E14C40"
         id="stop189" /><stop
         offset="1"
         style="stop-color:#CD392D"
         id="stop191" /></radialGradient><path
       fill="url(#SVGID_12_)"
       d="M9.1,127L32,165l3.3-5.5c0.8-1.4,0.8-3.6,0-5l-15-25c-0.8-1.4-2.8-2.5-4.4-2.5H9.1z"
       id="path193" /></g><text
     transform="matrix(1 0 0 1 48.5398 48.9692)"
     fill="#4E4E4E"
     font-family="'OpenSans-Semibold'"
     font-size="22"
     id="text195">Kyoto</text>
<text
     transform="matrix(1 0 0 1 48.54 110.886)"
     fill="#4E4E4E"
     font-family="'OpenSans-Semibold'"
     font-size="22"
     id="text197">Kyoto</text>
<text
     transform="matrix(1 0 0 1 48.698 173.886)"
     fill="#E6E6E5"
     font-family="'OpenSans-Semibold'"
     font-size="22"
     id="text199">Kyoto</text>
</svg>